<svg width="105" height="69" viewBox="0 0 105 69" fill="none" xmlns="http://www.w3.org/2000/svg">
<path d="M102.245 8.503C97.2737 5.21692 89.9395 9.50252 84.1048 13.604C80.6633 16.0268 77.5093 18.6314 75.7002 20.1777C75.1148 20.6781 74.4128 21.0301 73.6548 21.1666C72.0343 21.471 70.4715 22.0218 69.0201 22.7987C68.6622 22.9903 68.2188 22.9155 67.9408 22.6196C67.8406 22.5129 67.7666 22.3817 67.73 22.24C66.918 19.0941 65.5755 16.1091 63.7599 13.4139C60.4631 8.49387 54.0185 2.25185 42.0479 0.458197C29.8537 -1.3674 21.3563 2.65652 16.3761 6.3564C13.039 8.83693 10.8179 11.467 9.556 13.21C8.87887 14.1453 8.03602 14.9481 7.15485 15.6943C5.58553 17.0148 4.70507 18.7674 4.67465 20.6265C4.66686 21.245 4.74813 21.8603 4.91513 22.4537C5.01673 22.8148 5.0037 23.1974 4.88603 23.5535C3.92398 26.2999 3.21586 29.3128 1.90266 31.9097C1.42893 32.8465 1.034 33.8459 0.719418 34.9057C-0.350247 38.4528 -0.222521 42.2536 1.08286 45.7208C2.3298 49.1271 4.64576 52.398 7.96384 55.4406C10.7276 57.9386 13.7926 60.0802 17.087 61.8161C17.362 61.961 17.6019 62.164 17.7979 62.4053C19.7839 64.8546 23.5612 67.9551 30.2765 68.8131C31.2497 68.9387 32.23 69.0022 33.2113 69.0033C36.7869 69.0191 40.3026 68.1103 43.4187 66.3694C43.7494 66.1847 44.1243 66.1 44.5007 66.058C47.3005 65.7074 50.0634 65.1071 52.7564 64.2644C59.0063 62.3262 63.6017 59.4813 66.4165 55.8073C67.6647 54.1856 70.2445 53.715 71.7619 55.0881C74.0028 57.1159 76.3649 58.7772 78.8038 60.029C83.3277 62.349 87.1279 62.8373 89.5199 62.8358C90.7738 62.849 92.0244 62.7049 93.2424 62.4068C97.9565 61.1898 98.3229 57.9767 98.3229 57.0198C98.3229 53.7018 95.6542 52.1059 93.3048 50.6971C90.7197 49.1499 87.5034 47.227 85.3973 42.9779C83.6661 39.4067 84.7668 34.673 88.174 32.6379C90.4022 31.307 92.579 29.8063 94.649 28.1632C97.3224 26.0439 103.665 20.5565 104.816 15.4114C105.444 12.565 104.486 9.98477 102.245 8.503Z" fill="white"/>
<path d="M17 16L12.5 17L13.5 14.4992C19.5 8.49921 25.3333 5.99973 27.5 5.49999C29.1667 4.66666 35.2 3.49999 46 5.49999C56.8 7.49999 62.1667 17 63.5 21.5L63 23.5C59.4 22.7 57.5 20.1667 57 19C56.5 17.5 54.8 14.1 52 12.5C49.2 10.9 44.5 13.5 42.5 15H39L32.5 14L31.5 12.5L28.5 9.99999H25.5L21 11.5L17 16Z" fill="#5BDC58"/>
<path d="M5.00008 35.5C7.00008 27.1 17.5001 26.3333 22.5001 27C24.3334 25.8334 29.9 23.9003 37.5 25.5003C45.1 27.1003 49 30.5003 50 32.0003C56 32.0003 65.5 35.0003 65.5 47.0003C65.5 58.5111 48.8333 61.3336 43.5 61.5003C41.8333 62.6669 36.9 64.9003 30.5 64.5003C24.1 64.1003 20.1667 59.6669 19.0001 57.5003C10.5001 54.0003 2.50008 46 5.00008 35.5Z" fill="#5BDC58"/>
<path d="M9.50037 22.5C8.66704 21.3333 8.00037 18.7 12.0004 17.5C17.0004 16 17.0001 16.5 19.0001 14C21.0001 11.5 22.0001 9.5 27.0001 10C31.0001 10.4 32.3334 12.8333 32.5001 14C35.3334 14.666 41.4001 15.7983 43.0001 14.999C44.5001 13.499 48.4001 10.999 52.0001 12.999C56.5001 15.499 57.0001 16.499 57.0001 20.499L61.5001 22.999C63.1667 23.6657 66.5001 25.699 66.5001 28.499H68.0001C69.3334 26.999 73.1001 24.099 77.5001 24.499C83.1667 18.8324 95.7001 8.49904 100.5 12.499C106.5 17.499 79.5001 35.499 73.0001 34.499C74.0001 34.999 76.7001 36.999 79.5001 40.999C83.0001 45.999 83.5001 50.499 92.0001 54.499C100.5 58.499 86.5001 61.499 76.5001 53.499C66.5001 45.499 67.1667 42.1657 65.5001 40.499H64.0001C62.8334 37.1657 58.4001 30.899 50.0001 32.499L48.0001 30.499C49.6667 30.3324 52.5001 28.499 53.0001 25.999C53.5001 23.499 55.5001 20.499 51.0001 17.999C49.5001 17.1657 46.2001 16.699 45.0001 21.499C43.9332 25.7664 44.1046 27.1884 44.39 27.4514C44.4275 27.4675 44.4641 27.4833 44.5001 27.499C44.4631 27.499 44.4257 27.4843 44.39 27.4514C41.6495 26.2782 34.9192 24.3152 29.0001 25.499L28.0001 24.499C28.8334 23.6654 30.3001 21.1983 29.5001 17.999C28.5001 14 27.0001 12.999 22.5001 15.499C18.0001 17.999 19.5001 24.999 22.5001 25.999L22.0001 26.999C20.0003 26.3324 14.7006 25.799 9.50037 28.999C9.00026 28.499 8.10005 27.099 8.50005 25.499C8.90005 23.899 9.3336 22.833 9.50037 22.5Z" fill="#9852F1"/>
<path d="M100.568 11.0423C97.9573 9.31557 93.1444 10.9677 85.8528 16.0946C82.4974 18.4864 79.2711 21.0544 76.1875 23.788C75.5792 23.8975 74.936 24.0162 74.235 24.1531C70.9564 24.7905 68.8138 26.3514 67.5106 27.7085C67.0419 26.2711 66.1769 24.9955 65.0152 24.0284C64.7826 22.7961 63.9097 19.0962 61.2349 15.1057C58.2787 10.6939 52.4713 5.09386 41.5986 3.46452C30.437 1.79105 22.7074 5.44225 18.1896 8.79679C13.2854 12.4389 11.0425 16.4536 10.9558 16.6225C10.9088 16.708 10.874 16.7997 10.8524 16.8948C10.2246 17.1902 9.63941 17.5688 9.11275 18.0206C7.97986 18.9745 7.72743 19.9892 7.71678 20.6723C7.70158 21.6809 8.17298 22.5131 8.56987 23.0334C8.22395 23.5004 7.94927 24.0162 7.7548 24.5639C7.07811 26.4853 7.64531 28.2242 8.02547 29.0624C5.94521 30.7359 4.46105 32.986 3.63685 35.767C1.87137 41.7199 4.07936 47.7474 10.0236 53.1953C12.8375 55.7358 15.9868 57.8776 19.3833 59.5606C19.4269 59.5814 19.4722 59.5987 19.5186 59.6123C19.7102 59.8983 19.9246 60.1904 20.1649 60.4856C21.7996 62.5044 24.9489 65.0617 30.6651 65.792C31.5107 65.9016 32.3625 65.9569 33.2152 65.9578C36.6989 65.9802 40.111 64.9691 43.0204 63.052C43.1481 62.9684 43.2728 62.8832 43.3945 62.798C43.5832 62.9516 43.8188 63.0359 44.0621 63.0368C44.1006 63.0391 44.1391 63.0391 44.1776 63.0368C46.7824 62.7049 49.3531 62.145 51.86 61.3634C57.4956 59.6154 61.5816 57.1249 64.0055 53.9606C66.1101 51.213 66.8948 48.0152 66.3367 44.4538C66.2911 44.1601 66.2378 43.8772 66.1846 43.5957C70.1809 49.9351 74.9816 54.6497 80.196 57.3257C84.0721 59.3141 87.3005 59.7994 89.5252 59.7979C90.5225 59.8097 91.5174 59.6983 92.4874 59.4663C94.2666 59.0098 95.287 58.1168 95.287 57.0245C95.287 55.4317 93.8013 54.5432 91.7439 53.3125C88.9732 51.6542 85.1777 49.3844 82.6746 44.3366C80.1275 39.1991 77.2276 36.4865 75.1474 35.0884C87.8266 31.5209 100.542 20.6236 101.847 14.7543C102.325 12.5758 101.251 11.4941 100.568 11.0423ZM67.722 36.8441C67.6579 35.5954 67.3603 34.3698 66.8446 33.2309C67.1892 32.7499 67.4432 32.2102 67.5943 31.6381C68.4398 31.9925 69.6639 32.881 69.5225 35.0428C69.4571 36.0606 69.1681 36.7741 68.6663 37.162C68.3897 37.3646 68.0644 37.4906 67.7235 37.5271C67.7365 37.2992 67.738 37.0707 67.7281 36.8425L67.722 36.8441ZM19.4517 10.5068C22.0991 8.5347 25.0898 7.0722 28.2715 6.19379C32.2754 5.08779 36.6488 4.87783 41.2686 5.57003C49.3433 6.7871 55.4427 10.3607 59.3994 16.2194C60.6756 18.1118 61.6751 20.1768 62.3678 22.3519C62.1305 22.2393 61.8857 22.1282 61.6272 22.0217C59.6655 21.2108 58.2726 18.5729 58.2529 18.5348C58.1904 18.4141 58.1052 18.3066 58.0019 18.2184C57.1808 14.73 55.0503 12.4373 51.8189 11.5671C48.6256 10.7106 45.5842 11.4546 42.9991 13.7198C38.6363 14.7467 34.1899 13.1904 32.9491 12.696C31.6489 10.1097 29.4713 8.7405 26.6247 8.70551H26.4969C21.8346 8.70551 19.7543 11.1396 18.0816 13.09C17.3867 13.9009 16.7312 14.6661 15.9892 15.1301C15.3406 15.5433 14.6308 15.8513 13.8861 16.0429C15.4654 13.9371 17.3422 12.0723 19.4578 10.5068H19.4517ZM9.76359 25.25C10.3065 23.7393 11.9244 22.5116 14.5689 21.5988C14.8356 21.5066 15.0548 21.3121 15.1783 21.0582C15.3018 20.8043 15.3194 20.5117 15.2273 20.2448C15.1351 19.9779 14.9407 19.7586 14.687 19.6351C14.4332 19.5116 14.1407 19.4939 13.8739 19.5861C12.3452 20.1135 11.0856 20.7544 10.0951 21.509C9.93762 21.2709 9.84871 20.9941 9.83811 20.7088C9.83811 20.578 9.84723 20.1809 10.4753 19.6439C11.5777 18.7174 12.4171 18.5364 13.4801 18.3082C14.5035 18.0876 15.6622 17.8381 17.1297 16.9222C18.1485 16.2863 18.9423 15.3583 19.7148 14.4607C21.3328 12.5712 22.858 10.7836 26.6216 10.8217C28.7505 10.843 30.2454 11.844 31.1836 13.8826C31.6502 14.9419 31.9286 16.0745 32.0063 17.2295C32.0106 17.3694 32.0424 17.507 32.1 17.6346C32.1575 17.7621 32.2396 17.8771 32.3416 17.9729C32.4435 18.0687 32.5634 18.1434 32.6942 18.1929C32.8251 18.2423 32.9644 18.2655 33.1042 18.261C33.3863 18.2519 33.6532 18.131 33.8463 17.925C34.0393 17.7191 34.1427 17.4448 34.1337 17.1626C34.0991 16.5212 34.0096 15.884 33.866 15.2579C35.8208 15.8585 37.8522 16.1731 39.897 16.192C40.2011 16.192 40.5113 16.1834 40.8276 16.1661C40.4259 16.7263 40.0699 17.318 39.7632 17.9354C39.6436 18.1907 39.6301 18.483 39.7256 18.7482C39.8211 19.0134 40.0178 19.2299 40.2726 19.3503C40.5275 19.4706 40.8197 19.4848 41.0851 19.3898C41.3505 19.2948 41.5675 19.0984 41.6883 18.8437C42.3342 17.5926 43.1884 16.4608 44.2141 15.4967C46.3172 13.5525 48.6955 12.9105 51.2837 13.6133C53.8308 14.2979 55.4229 16.1098 56.0144 19.0004C56.2979 20.4759 56.3359 21.9882 56.127 23.4761C56.0789 23.7543 56.1432 24.0402 56.3057 24.271C56.4682 24.5018 56.7157 24.6586 56.9937 24.7069C57.0544 24.7184 57.116 24.724 57.1777 24.7236C57.4282 24.7234 57.6706 24.6348 57.8623 24.4734C58.0539 24.312 58.1825 24.0881 58.2255 23.8412C58.3085 23.3088 58.3593 22.7718 58.3775 22.2332C59.0705 22.9746 59.9058 23.5686 60.8334 23.9797C62.494 24.6658 65.3346 26.2617 65.6858 29.2709C65.7604 29.8879 65.7087 30.5137 65.5338 31.1101C64.3605 29.7037 62.8655 28.601 61.1756 27.8956C60.9166 27.7836 60.6238 27.779 60.3615 27.8828C60.0992 27.9866 59.8888 28.1904 59.7766 28.4493C59.7209 28.5777 59.691 28.7158 59.6887 28.8557C59.6864 28.9956 59.7117 29.1345 59.7631 29.2647C59.8145 29.3948 59.891 29.5135 59.9883 29.614C60.0856 29.7145 60.2017 29.7949 60.3301 29.8505C62.2552 30.6842 63.6999 31.9195 64.5879 33.456C64.617 33.5246 64.6532 33.5898 64.6959 33.6508C65.2415 34.6713 65.5532 35.8006 65.6083 36.9566C65.6752 38.198 65.2448 38.9511 64.8084 39.3908C62.8863 35.3988 59.7796 33.3054 57.1717 32.2283C54.9807 31.3335 52.6417 30.8568 50.2755 30.8226L50.2633 30.8089C52.2767 30.0756 53.2849 28.1405 53.7441 26.8656C54.8086 23.9021 54.7934 21.4162 53.6909 19.4781C53.2553 18.7297 52.6672 18.0814 51.9648 17.5753C51.2624 17.0692 50.4615 16.7166 49.614 16.5404C48.3975 16.3061 47.114 16.7427 45.9857 17.7681C44.8193 18.833 43.8705 20.4456 43.1664 22.577C42.7873 23.6518 42.5969 24.7842 42.6037 25.9239C40.3472 25.1287 38.0084 24.5899 35.6315 24.3174C33.6435 24.0707 31.6327 24.0707 29.6447 24.3174C30.1119 23.2872 30.3989 22.1845 30.4932 21.0572C30.732 18.7874 30.5966 17.0576 30.0811 15.769C29.4303 14.1412 28.2837 13.5601 27.4367 13.3593C26.5011 13.1597 25.5342 13.1574 24.5976 13.3526C23.6611 13.5477 22.7755 13.936 21.9973 14.4926C20.2577 15.7751 19.2784 17.8396 19.0898 20.6282C18.9377 22.8022 19.476 24.4893 20.6743 25.6486C18.7471 25.5449 16.8144 25.6716 14.9171 26.0259C13.1348 26.3515 11.4174 26.965 9.83202 27.8423C9.61 27.2429 9.40167 26.2678 9.76967 25.25H9.76359ZM49.1928 25.9102C49.6687 23.7971 48.6392 21.7585 46.8996 21.366C46.5957 21.2984 46.2825 21.2835 45.9735 21.3219C47.038 19.2681 48.3062 18.4648 49.1988 18.6352C49.7446 18.753 50.26 18.9826 50.7125 19.3097C51.165 19.6367 51.5449 20.0541 51.8281 20.5354C52.6097 21.9046 52.5747 23.7971 51.7277 26.1491C51.0221 28.107 49.9272 29.0396 48.3747 28.9788C48.3281 28.9757 48.2813 28.9757 48.2347 28.9788C48.0127 28.8074 47.7862 28.64 47.555 28.4767C48.3959 27.8486 48.9805 26.9368 49.2004 25.9102H49.1928ZM28.4571 19.4568C28.0113 19.0618 27.4528 18.817 26.8604 18.7569C25.0858 18.5926 23.4754 20.2098 23.2731 22.3655C23.1809 23.2636 23.3644 24.1684 23.7993 24.9594C23.202 24.8396 22.6464 24.5659 22.1874 24.1653C21.427 23.4639 21.0955 22.3229 21.2005 20.7758C21.3525 18.6459 22.0353 17.1048 23.2488 16.2118C24.0631 15.6356 25.0388 15.3321 26.0362 15.3446C26.3377 15.3413 26.6387 15.3719 26.9334 15.4359C28.2578 15.7478 28.5088 17.7255 28.4631 19.4568H28.4571ZM62.3085 52.6537C59.6382 56.1437 54.8253 58.199 51.2578 59.308C49.5196 59.8459 47.7504 60.2777 45.9598 60.6012C46.3896 60.1642 46.7851 59.6947 47.1429 59.197C47.3013 58.964 47.3609 58.6777 47.3088 58.4009C47.2566 58.124 47.0969 57.8791 46.8646 57.7198C46.6337 57.5637 46.3508 57.5046 46.0767 57.5549C45.8026 57.6053 45.5592 57.7611 45.3987 57.989C45.3866 58.0058 44.1655 59.7553 41.7719 61.3192C38.5968 63.3943 34.9518 64.1869 30.9373 63.6743C21.4955 62.4678 20.0752 55.955 20.0204 55.6782C19.966 55.4019 19.8044 55.1584 19.571 55.0011C19.3376 54.8437 19.0514 54.7852 18.775 54.8384C18.4978 54.8914 18.2529 55.0525 18.0944 55.2862C17.9358 55.5198 17.8765 55.8069 17.9295 56.0843C17.9295 56.1026 17.9554 56.2106 18.004 56.3886C15.65 55.0251 13.4443 53.42 11.4226 51.5994C6.07447 46.6795 4.14172 41.5587 5.67606 36.3861C7.0036 31.9058 10.2274 29.1339 15.2562 28.1436C16.6879 27.8708 18.1435 27.7439 19.6007 27.7647C16.7206 29.4382 15.0813 31.0843 15.0053 31.1619C14.8071 31.3625 14.6966 31.6337 14.698 31.9158C14.6995 32.1978 14.8127 32.4678 15.0129 32.6665C15.1118 32.7654 15.2291 32.8438 15.3583 32.8974C15.4874 32.9509 15.6258 32.9784 15.7656 32.9784C15.9054 32.9784 16.0439 32.9509 16.173 32.8974C16.3022 32.8438 16.4195 32.7654 16.5184 32.6665C16.5366 32.6482 18.4648 30.7283 21.7525 29.0153C26.1213 26.7333 30.7 25.8768 35.3608 26.4549C38.5542 26.8504 41.2686 27.5792 43.5724 28.6547L43.5952 28.6654C44.9968 29.3111 46.3052 30.1426 47.4851 31.1375C48.0247 31.5978 48.5327 32.0939 49.0057 32.6224L49.0331 32.6513C50.5218 34.3156 51.711 36.3511 52.7678 39.0135C52.8465 39.2119 52.9829 39.3821 53.1594 39.502C53.336 39.6219 53.5444 39.686 53.7578 39.6859C53.8922 39.6858 54.0254 39.66 54.1501 39.6098C54.4125 39.5055 54.6226 39.3012 54.7344 39.0419C54.8462 38.7826 54.8505 38.4894 54.7462 38.2269C54.059 36.4189 53.1677 34.6952 52.0896 33.0894C53.5756 33.2718 55.0299 33.6552 56.4129 34.2289C60.7893 36.0743 63.417 39.6235 64.2245 44.7763C64.6928 47.7368 64.0481 50.3824 62.3145 52.6537H62.3085ZM74.7307 37.4146C76.3137 38.6499 78.6449 41.0171 80.7556 45.2738C83.5353 50.8829 87.8114 53.4403 90.6399 55.1335C91.5523 55.6766 92.8813 56.4738 93.1109 56.9028C92.7353 57.2071 91.3181 57.7806 88.812 57.6422C85.4879 57.4581 81.8003 56.0935 78.429 53.7993C74.0327 50.8068 70.1003 46.2976 66.7366 40.3903C66.9051 40.1653 67.0537 39.9261 67.1806 39.6753C67.246 39.6753 67.316 39.6753 67.389 39.6753C68.3054 39.6903 69.2015 39.405 69.9406 38.8629C70.815 38.1996 71.3609 37.1894 71.5693 35.875L71.9844 35.8035C72.3995 35.9556 73.4245 36.3861 74.7368 37.4146H74.7307ZM99.7562 14.2797C99.2529 16.5343 95.9728 20.832 89.7807 25.355C83.8638 29.6771 77.2915 32.6893 71.5936 33.7223C71.2514 31.4129 69.708 30.2871 68.5371 29.7577C69.4921 28.5848 71.3822 26.8839 74.6349 26.251C76.221 25.9468 77.5394 25.717 78.7027 25.5193C81.7759 24.9929 83.6311 24.6764 85.6977 23.6191C85.9488 23.4906 86.1387 23.2677 86.2256 22.9993C86.3126 22.7309 86.2895 22.439 86.1615 22.1876C86.0981 22.0628 86.0107 21.9518 85.9043 21.8609C85.798 21.77 85.6748 21.701 85.5417 21.6578C85.4087 21.6145 85.2684 21.5979 85.129 21.609C84.9896 21.62 84.8537 21.6584 84.7291 21.722C83.3802 22.4127 82.1105 22.7398 80.2796 23.0791C82.039 21.614 84.4842 19.6606 87.0815 17.835C95.7797 11.7223 98.5823 12.2959 99.3852 12.8268C99.5753 12.9394 99.9995 13.2193 99.7623 14.2797H99.7562Z" fill="black"/>
<path d="M35 58C30.2 58.8 27 57 26 56C26.5 55.1667 28.5 53.3 32.5 52.5C36.5 51.7 41.8333 53.1667 44 54C43 55 39.8 57.2 35 58Z" fill="#F93C69"/>
<path d="M55.6649 43.8048L55.2848 44.7998L54.8894 45.7886C55.2462 45.9607 55.5643 46.2034 55.8246 46.5021C53.9099 47.5657 51.8923 48.4322 49.8028 49.0884C44.0081 50.9129 37.8769 51.4069 31.8651 50.5337C24.2071 49.4505 18.8695 46.1218 15.7461 43.5158C12.7732 41.0436 11.1705 38.7373 10.8009 38.1729C11.3213 37.8229 11.905 37.5779 12.5193 37.4518C12.7949 37.391 13.0351 37.2232 13.1871 36.9853C13.3391 36.7473 13.3904 36.4587 13.3298 36.183C13.2997 36.0463 13.243 35.9168 13.1629 35.8021C13.0828 35.6873 12.9809 35.5895 12.8629 35.5142C12.745 35.4389 12.6134 35.3876 12.4756 35.3632C12.3379 35.3388 12.1966 35.3418 12.06 35.3721C8.12305 36.2423 7.00537 39.5208 6.96431 41.1334C6.96026 41.2735 6.9839 41.413 7.03388 41.544C7.08385 41.6749 7.15917 41.7947 7.25552 41.8965C7.35188 41.9982 7.46736 42.08 7.59535 42.137C7.72335 42.194 7.86134 42.2252 8.0014 42.2287H8.02877C8.30589 42.2288 8.57214 42.1208 8.77091 41.9276C8.96968 41.7345 9.08532 41.4714 9.09323 41.1942C9.13233 40.7522 9.24006 40.319 9.41257 39.9102C10.8265 41.832 12.4715 43.5723 14.3106 45.0919C15.6219 46.1905 17.0171 47.185 18.4833 48.0661C18.8777 49.7122 19.5554 51.2772 20.486 52.6909C22.0736 55.1068 25.1575 58.1677 30.8265 59.0151C31.7239 59.1509 32.6302 59.2196 33.5378 59.2205C36.9598 59.2297 40.2985 58.1656 43.0845 56.1778C45.767 54.2746 47.1158 52.1691 47.172 52.0793C47.1873 52.055 47.2009 52.0307 47.2146 52.0063C48.4524 51.7203 49.5686 51.3978 50.5433 51.0935C52.7202 50.4036 54.823 49.4985 56.8206 48.3916C56.9822 49.0312 57.0534 49.6903 57.032 50.3496C57.029 50.4895 57.0535 50.6285 57.1042 50.7589C57.1549 50.8893 57.2308 51.0084 57.3276 51.1094C57.4243 51.2104 57.54 51.2913 57.668 51.3476C57.796 51.4039 57.9339 51.4344 58.0737 51.4373H58.0965C58.3746 51.4374 58.6417 51.3286 58.8407 51.1341C59.0396 50.9396 59.1546 50.6749 59.1609 50.3967C59.2689 45.247 55.8124 43.8626 55.6649 43.8048ZM31.1443 56.908C29.9988 56.7434 28.8762 56.4468 27.7989 56.0241C28.5162 55.655 29.2686 55.3584 30.0449 55.1387C32.2012 54.5074 35.9313 53.9217 41.8589 54.4252C39.4897 56.1078 35.9177 57.6231 31.1443 56.908Z" fill="black"/>
</svg>
