<svg width="650" height="435" viewBox="0 0 650 435" fill="none" xmlns="http://www.w3.org/2000/svg">
<path d="M379.516 249.437L379.614 247.94L379.516 249.437ZM6.76824 433.879C7.1719 434.603 8.08559 434.862 8.80902 434.458L20.598 427.88C21.3214 427.477 21.5806 426.563 21.177 425.84C20.7733 425.116 19.8596 424.857 19.1362 425.261L8.65712 431.108L2.80998 420.629C2.40632 419.905 1.49263 419.646 0.769204 420.05C0.0457745 420.453 -0.213449 421.367 0.190212 422.09L6.76824 433.879ZM646.585 0.000109434C643.173 34.3408 627.533 99.7593 587.17 154.863C546.864 209.888 481.907 254.652 379.614 247.94L379.417 250.934C482.874 257.722 548.767 212.368 589.59 156.636C630.355 100.983 646.122 35.0071 649.571 0.296766L646.585 0.000109434ZM379.614 247.94C297.523 242.553 216.721 245.001 150.221 270.668C83.6144 296.375 31.4283 345.35 6.63508 432.739L9.52117 433.558C34.0469 347.112 85.5389 298.848 151.301 273.466C217.169 248.044 297.427 245.554 379.417 250.934L379.614 247.94Z" fill="url(#paint0_linear_784_62460)"/>
<defs>
<linearGradient id="paint0_linear_784_62460" x1="572.089" y1="216.648" x2="8.07812" y2="216.648" gradientUnits="userSpaceOnUse">
<stop stop-color="#FF4646"/>
<stop offset="1" stop-color="#FF9486"/>
</linearGradient>
</defs>
</svg>
