<svg width="103" height="103" viewBox="0 0 103 103" fill="none" xmlns="http://www.w3.org/2000/svg">
<rect x="27.225" width="80" height="80" rx="40" transform="rotate(19.8959 27.225 0)" fill="url(#paint0_linear_784_62459)"/>
<g clip-path="url(#clip0_784_62459)">
<path d="M63.1217 51.9666C63.4325 49.8875 63.6026 48.1976 63.3795 46.3654L60.3218 30.3697C60.2316 29.1973 60.2139 28.021 60.2687 26.8475L59.9832 27.6363C56.9074 30.026 55.5057 33.899 56.1998 38.0902L58.2837 50.6677C58.6718 52.593 58.5247 54.5835 57.8581 56.4253C57.1915 58.2671 56.0307 59.8907 54.5003 61.1217L53.8243 61.7691C54.2486 60.5062 54.2792 59.1434 53.9121 57.8578L51.9406 46.1983L50.5302 39.0893C50.1632 37.8047 50.1934 36.4428 50.617 35.1806L49.9468 35.8123C46.8683 38.2011 45.4666 42.074 46.1633 46.2663L48.6377 58.985C48.944 63.036 47.5404 66.9142 44.8542 69.439L44.1783 70.0865C44.2358 68.913 44.2181 67.7366 44.1253 66.5643L41.0676 50.5686C40.6423 48.4319 40.8285 46.2236 41.6051 44.1944C32.6894 43.1563 25.534 45.8121 23.7089 50.855C21.0445 58.217 29.8981 67.9841 43.5877 72.9386C56.8895 77.7527 69.9426 75.908 72.6051 68.5513C74.4321 63.5031 70.6367 56.875 63.1217 51.9666Z" fill="white"/>
</g>
<defs>
<linearGradient id="paint0_linear_784_62459" x1="97.7263" y1="40" x2="27.225" y2="40" gradientUnits="userSpaceOnUse">
<stop stop-color="#FF4646"/>
<stop offset="1" stop-color="#FF9486"/>
</linearGradient>
<clipPath id="clip0_784_62459">
<rect width="52" height="49" fill="white" transform="translate(35.6254 17.9287) rotate(19.8959)"/>
</clipPath>
</defs>
</svg>
