<svg width="430" height="422" viewBox="0 0 430 422" fill="none" xmlns="http://www.w3.org/2000/svg">
<path d="M421.959 141.664C422.307 140.92 422.007 139.968 421.291 139.538L409.62 132.528C408.903 132.098 408.041 132.353 407.694 133.097C407.347 133.842 407.646 134.794 408.362 135.224L418.737 141.454L413.706 152.235C413.358 152.98 413.657 153.932 414.374 154.362C415.09 154.792 415.952 154.537 416.299 153.793L421.959 141.664ZM259.769 33.1914C259.527 32.3558 258.716 31.842 257.957 32.0439C257.199 32.2458 256.781 33.0868 257.024 33.9224L259.769 33.1914ZM258.396 33.5569C257.024 33.9224 257.024 33.9225 257.024 33.9225C257.024 33.9226 257.024 33.9226 257.024 33.9227C257.024 33.9228 257.024 33.9229 257.024 33.9231C257.024 33.9234 257.024 33.9237 257.024 33.9241C257.024 33.925 257.025 33.926 257.025 33.9274C257.026 33.9301 257.027 33.9338 257.028 33.9385C257.031 33.9479 257.035 33.9614 257.04 33.9788C257.051 34.0138 257.066 34.0647 257.086 34.1313C257.126 34.2644 257.185 34.4601 257.264 34.715C257.423 35.2249 257.661 35.972 257.981 36.9313L260.685 36.068C260.373 35.1327 260.143 34.4085 259.991 33.9206C259.915 33.6767 259.859 33.4918 259.822 33.3692C259.804 33.3079 259.79 33.2622 259.781 33.2324C259.777 33.2175 259.774 33.2066 259.772 33.1998C259.771 33.1963 259.77 33.1939 259.77 33.1925C259.769 33.1918 259.769 33.1914 259.769 33.1912C259.769 33.1911 259.769 33.191 259.769 33.1911C259.769 33.1911 259.769 33.1911 259.769 33.1912C259.769 33.1912 259.769 33.1912 259.769 33.1913C259.769 33.1913 259.769 33.1914 258.396 33.5569ZM260.134 42.9896C260.795 44.7495 261.565 46.7264 262.449 48.8845L265.072 47.8019C264.202 45.6778 263.444 43.7335 262.795 42.0043L260.134 42.9896ZM264.955 54.7641C265.777 56.6194 266.667 58.562 267.627 60.5762L270.17 59.3146C269.225 57.3309 268.349 55.4177 267.54 53.5906L264.955 54.7641ZM270.45 66.2966C271.388 68.132 272.38 70.0099 273.425 71.9202L275.879 70.4841C274.85 68.6039 273.875 66.7552 272.951 64.9479L270.45 66.2966ZM276.555 77.4481C277.605 79.2401 278.701 81.0513 279.844 82.874L282.194 81.2596C281.07 79.4677 279.992 77.6866 278.96 75.9237L276.555 77.4481ZM283.298 88.192C284.462 89.9237 285.669 91.6592 286.92 93.3921L289.144 91.5919C287.917 89.891 286.732 88.1869 285.588 86.4857L283.298 88.192ZM290.714 98.4616C291.996 100.113 293.319 101.756 294.684 103.386L296.758 101.392C295.421 99.7954 294.124 98.1848 292.867 96.5654L290.714 98.4616ZM298.832 108.148C300.232 109.693 301.672 111.221 303.152 112.724L305.045 110.531C303.598 109.061 302.189 107.567 300.819 106.055L298.832 108.148ZM307.641 117.093C309.158 118.506 310.714 119.892 312.309 121.246L313.987 118.853C312.431 117.531 310.912 116.179 309.431 114.799L307.641 117.093ZM317.153 125.164C318.787 126.422 320.458 127.644 322.169 128.828L323.596 126.242C321.931 125.09 320.302 123.899 318.709 122.673L317.153 125.164ZM327.323 132.2C329.053 133.267 330.82 134.294 332.624 135.276L333.769 132.516C332.015 131.561 330.296 130.563 328.613 129.524L327.323 132.2ZM338.067 138.046C339.888 138.909 341.744 139.726 343.636 140.494L344.475 137.589C342.636 136.843 340.831 136.048 339.061 135.209L338.067 138.046ZM349.265 142.591C351.14 143.229 353.048 143.818 354.989 144.355L355.512 141.342C353.624 140.82 351.769 140.247 349.946 139.627L349.265 142.591ZM360.809 145.784C362.708 146.193 364.638 146.553 366.597 146.86L366.807 143.78C364.899 143.481 363.021 143.131 361.172 142.733L360.809 145.784ZM372.44 147.61C374.372 147.804 376.332 147.948 378.32 148.039L378.233 144.929C376.294 144.84 374.383 144.7 372.499 144.511L372.44 147.61ZM384.111 148.154C386.037 148.144 387.987 148.084 389.962 147.974L389.606 144.865C387.674 144.973 385.768 145.031 383.887 145.041L384.111 148.154ZM395.702 147.516C397.595 147.321 399.51 147.079 401.448 146.791L400.852 143.706C398.953 143.989 397.077 144.226 395.223 144.417L395.702 147.516ZM407.122 145.819C408.976 145.462 410.85 145.061 412.743 144.616L411.938 141.572C410.078 142.009 408.238 142.402 406.418 142.754L407.122 145.819ZM418.309 143.195C419.247 142.937 420.188 142.669 421.135 142.389L420.19 139.382C419.259 139.657 418.332 139.921 417.41 140.175L418.309 143.195Z" fill="url(#paint0_linear_784_72788)"/>
<path d="M107.943 416.003C107.227 415.686 106.927 414.78 107.274 413.982L112.928 400.965C113.275 400.166 114.137 399.776 114.854 400.094C115.57 400.411 115.87 401.316 115.523 402.115L110.497 413.686L120.874 418.287C121.59 418.605 121.89 419.51 121.543 420.309C121.196 421.108 120.334 421.498 119.617 421.18L107.943 416.003ZM240.803 2.19853C240.528 1.41534 240.911 0.493162 241.658 0.138793C242.405 -0.215576 243.233 0.132052 243.508 0.915243L240.803 2.19853ZM108.098 413.127C204.935 369.315 250.916 303.48 266.365 230.317C281.845 157.009 266.724 76.0937 240.803 2.19853L243.508 0.915243C269.503 75.0201 284.84 156.604 269.174 230.797C253.477 305.134 206.708 371.799 109.044 415.986L108.098 413.127Z" fill="url(#paint1_linear_784_72788)"/>
<defs>
<linearGradient id="paint0_linear_784_72788" x1="398.881" y1="134.926" x2="242.332" y2="76.8833" gradientUnits="userSpaceOnUse">
<stop stop-color="#BFF0FF"/>
<stop offset="1" stop-color="#82B4FF"/>
</linearGradient>
<linearGradient id="paint1_linear_784_72788" x1="83.0828" y1="253.996" x2="305.215" y2="171.637" gradientUnits="userSpaceOnUse">
<stop stop-color="#BFF0FF"/>
<stop offset="1" stop-color="#82B4FF"/>
</linearGradient>
</defs>
</svg>
