<svg width="496" height="455" viewBox="0 0 496 455" fill="none" xmlns="http://www.w3.org/2000/svg">
<path d="M4.59381 454.206C3.80528 454.464 3.02582 454.017 2.85285 453.208L0.0340451 440.026C-0.13893 439.217 0.36008 438.352 1.14855 438.094C1.93707 437.836 2.71653 438.283 2.8895 439.092L5.39509 450.809L16.8168 447.072C17.6053 446.814 18.3847 447.261 18.5577 448.07C18.7306 448.879 18.2317 449.744 17.4432 450.002L4.59381 454.206ZM3.04957 452.036C11.2327 437.852 25.5436 426.067 44.0305 415.958C62.5349 405.841 85.3775 397.32 110.822 389.742C161.691 374.592 223.291 363.122 281.91 350.279C340.624 337.415 396.319 323.179 435.699 302.516C455.381 292.188 470.839 280.329 480.578 266.371C490.27 252.478 494.379 236.391 491.196 217.352L494.077 216.551C497.393 236.388 493.105 253.377 482.878 268.036C472.697 282.629 456.712 294.796 436.803 305.243C396.999 326.129 340.916 340.433 282.247 353.287C223.485 366.162 162.099 377.587 111.371 392.695C86.0174 400.246 63.4087 408.694 45.1831 418.66C26.9399 428.635 13.2422 440.047 5.51159 453.446L3.04957 452.036ZM491.196 217.352C484.776 178.958 464.349 155.717 438.661 143.297C412.924 130.853 381.853 129.255 354.257 134.34C326.591 139.438 302.775 151.18 291.341 165.022C285.67 171.886 283.138 179.137 284.468 186.367C285.811 193.667 291.152 201.298 302.004 208.635L300.267 211.267C289.119 203.73 283.132 195.565 281.596 187.216C280.047 178.798 283.085 170.548 289.211 163.131C301.371 148.411 326.055 136.465 354.015 131.313C382.044 126.148 413.723 127.738 440.079 140.481C466.486 153.249 487.496 177.196 494.077 216.551L491.196 217.352ZM302.004 208.635C323.694 223.301 343.804 223.295 359.122 214.093C374.493 204.859 385.461 186.116 388.395 162.447C394.255 115.171 367.886 48.6304 281.054 2.77448L282.553 3.33729e-05C370.053 46.2083 397.35 113.699 391.293 162.564C388.268 186.966 376.882 206.821 360.388 216.729C343.841 226.67 322.577 226.352 300.267 211.267L302.004 208.635Z" fill="url(#paint0_linear_784_72711)"/>
<defs>
<linearGradient id="paint0_linear_784_72711" x1="29.8885" y1="262.371" x2="483.711" y2="171.859" gradientUnits="userSpaceOnUse">
<stop stop-color="#A9FE81"/>
<stop offset="1" stop-color="#C0F0FF"/>
</linearGradient>
</defs>
</svg>
