<svg width="80" height="80" viewBox="0 0 80 80" fill="none" xmlns="http://www.w3.org/2000/svg">
<rect width="80" height="80" rx="40" fill="url(#paint0_linear_784_72708)"/>
<g clip-path="url(#clip0_784_72708)">
<path d="M28.793 50.2706C25.5359 45.9989 24.9223 40.01 27.1985 34.642C29.4747 29.274 34.1909 25.5669 39.5141 24.9247C39.8633 24.8938 40.2028 24.793 40.5124 24.6283C40.8221 24.4636 41.0957 24.2383 41.3169 23.9658C41.538 23.6934 41.7023 23.3794 41.8001 23.0423C41.8978 22.7053 41.9269 22.352 41.8857 22.0036C41.8445 21.6552 41.7338 21.3187 41.5602 21.0141C41.3866 20.7095 41.1536 20.443 40.875 20.2303C40.5964 20.0176 40.278 19.8632 39.9386 19.7761C39.5991 19.6891 39.2456 19.6711 38.8989 19.7234C31.7125 20.5829 25.3817 25.5194 22.3799 32.5988C19.378 39.6782 20.2325 47.6876 24.6272 53.4534C24.8356 53.727 25.0959 53.9568 25.3932 54.1296C25.6904 54.3024 26.0189 54.4148 26.3597 54.4605C26.7005 54.5062 27.047 54.4842 27.3795 54.3958C27.712 54.3074 28.0239 54.1544 28.2974 53.9454C28.571 53.7365 28.8008 53.4757 28.9737 53.1779C29.1466 52.8801 29.2593 52.5512 29.3054 52.21C29.3514 51.8687 29.3298 51.5218 29.2419 51.1891C29.154 50.8563 29.0015 50.5442 28.793 50.2706Z" fill="#8BFF55"/>
<path d="M57.57 47.5203C60.5844 40.4112 59.7163 32.4136 55.3015 26.6436C54.8794 26.0923 54.2556 25.7317 53.5674 25.6411C52.8792 25.5505 52.1829 25.7374 51.6318 26.1605C51.0806 26.5837 50.7197 27.2086 50.6285 27.8976C50.5372 28.5867 50.7231 29.2834 51.1453 29.8347C54.415 34.1074 55.0307 40.1017 52.7514 45.4771C50.4374 50.9342 45.4367 54.7658 40.0055 55.2397C39.3136 55.3 38.6737 55.633 38.2265 56.1654C37.7794 56.6977 37.5616 57.3859 37.6211 58.0784C37.6806 58.771 38.0125 59.4112 38.5438 59.8583C39.0751 60.3053 39.7623 60.5226 40.4542 60.4623C47.901 59.8139 54.4595 54.8559 57.57 47.5203Z" fill="#8BFF55"/>
<path d="M20.6922 55.7396C15.5441 48.7083 14.5481 39.1454 18.0945 30.7815C21.6883 22.3063 29.3603 16.3619 38.1128 15.2642C38.454 15.2214 38.7835 15.1117 39.0825 14.9414C39.3815 14.7712 39.6441 14.5437 39.8554 14.2719C40.0667 14.0002 40.2224 13.6895 40.3138 13.3576C40.4052 13.0257 40.4304 12.679 40.388 12.3375C40.3456 11.996 40.2364 11.6662 40.0667 11.3671C39.897 11.068 39.67 10.8054 39.3987 10.5942C39.1275 10.383 38.8173 10.2274 38.4858 10.1363C38.1544 10.0451 37.8082 10.0203 37.467 10.0631C26.8666 11.3934 17.5969 18.548 13.2759 28.7383C9.01163 38.795 10.242 50.3318 16.469 58.8411C16.8813 59.3957 17.4961 59.7644 18.1793 59.8668C18.8626 59.9691 19.5589 59.7968 20.1163 59.3874C20.6738 58.9781 21.0471 58.3649 21.155 57.6815C21.2629 56.9981 21.0965 56.3001 20.6922 55.7396Z" fill="#8BFF55"/>
<path d="M63.1825 20.8795C62.7544 20.3506 62.1374 20.0095 61.462 19.9285C60.7866 19.8476 60.1059 20.0331 59.5642 20.4457C59.0225 20.8583 58.6624 21.4657 58.56 22.1391C58.4577 22.8125 58.6213 23.4991 59.0161 24.0533C64.3885 31.1228 65.4695 40.805 61.849 49.3433C58.2726 57.7777 50.6402 63.7213 41.9312 64.8506C41.2426 64.9402 40.6174 65.2999 40.1932 65.8507C39.7689 66.4014 39.5805 67.098 39.6692 67.7873C39.7579 68.4766 40.1166 69.102 40.6663 69.526C41.216 69.9501 41.9117 70.138 42.6003 70.0484C53.146 68.6819 62.3671 61.5286 66.6676 51.3865C71.0238 41.1236 69.6913 29.4252 63.1825 20.8795Z" fill="#8BFF55"/>
</g>
<defs>
<linearGradient id="paint0_linear_784_72708" x1="40" y1="0" x2="40" y2="80" gradientUnits="userSpaceOnUse">
<stop stop-color="#463F3F"/>
<stop offset="1" stop-color="#252121"/>
</linearGradient>
<clipPath id="clip0_784_72708">
<rect width="58" height="54" fill="white" transform="translate(23.8418 3.82129) rotate(22.9782)"/>
</clipPath>
</defs>
</svg>
