<svg width="374" height="533" viewBox="0 0 374 533" fill="none" xmlns="http://www.w3.org/2000/svg">
<path d="M163.111 408.392L162.165 407.257L163.111 408.392ZM294.111 238.892L294.058 240.464L294.111 238.892ZM12.8406 532.244C13.5016 532.687 14.3831 532.44 14.8094 531.694L21.7574 519.524C22.1837 518.777 21.9935 517.813 21.3326 517.37C20.6716 516.927 19.7902 517.173 19.3638 517.92L13.1879 528.737L3.61374 522.321C2.95278 521.878 2.07129 522.124 1.64497 522.871C1.2186 523.618 1.40877 524.582 2.06973 525.025L12.8406 532.244ZM294.058 240.464C321.734 240.464 340.395 237.116 352.188 231.051C358.11 228.006 362.367 224.242 365.139 219.805C367.918 215.356 369.13 210.348 369.13 204.96C369.13 194.286 364.371 181.986 357.506 168.989C350.616 155.948 341.455 141.941 332.41 127.848C323.342 113.72 314.382 99.4946 307.795 85.9063C301.193 72.287 297.082 59.5175 297.503 48.2837C297.919 37.2182 302.739 27.4488 314.498 19.6569C326.361 11.7965 345.263 5.97721 373.687 3.13156L373.536 0.000104493C344.96 2.86089 325.534 8.73789 313.1 16.9769C300.563 25.2845 295.117 36.0178 294.658 48.2715C294.204 60.357 298.609 73.7232 305.273 87.4697C311.951 101.247 321.008 115.618 330.065 129.729C339.144 143.875 348.218 157.75 355.031 170.648C361.869 183.591 366.282 195.286 366.282 205.078C366.282 209.923 365.201 214.266 362.814 218.087C360.419 221.92 356.637 225.345 351.066 228.209C339.875 233.965 321.739 237.319 294.165 237.319L294.058 240.464ZM162.165 407.257C155.843 413.72 148.029 416.231 139.133 416.105C130.203 415.977 120.269 413.188 109.872 409.135C99.48 405.084 88.7447 399.82 78.1847 394.805C67.6564 389.804 57.2984 385.048 47.7735 382.093C38.2755 379.146 29.3997 377.92 21.8984 380.203C14.2675 382.525 8.26991 388.411 4.51416 399.093C0.792931 409.676 -0.753122 425.013 0.346969 446.475C1.44855 467.965 5.21251 495.739 12.2205 531.281L15.0048 530.503C8.01317 495.044 4.28078 467.445 3.19076 446.18C2.09926 424.885 3.66638 410.083 7.16458 400.134C10.6282 390.283 15.9563 385.241 22.5588 383.232C29.2908 381.183 37.5561 382.221 46.9084 385.123C56.2339 388.016 66.4353 392.694 76.9772 397.7C87.4874 402.692 98.333 408.01 108.835 412.104C119.33 416.196 129.602 419.115 138.99 419.249C148.413 419.383 157.032 416.708 164.057 409.527L162.165 407.257ZM164.057 409.527C178.819 394.437 185.634 376.102 189.783 357.279C191.855 347.879 193.27 338.317 194.667 328.975C196.068 319.61 197.45 310.471 199.46 301.804C203.474 284.495 209.943 269.279 223.826 258.329C237.755 247.342 259.379 240.464 294.058 240.464L294.165 237.319C259.215 237.319 236.879 244.237 222.229 255.793C207.533 267.385 200.801 283.458 196.702 301.132C194.656 309.957 193.255 319.234 191.857 328.577C190.456 337.944 189.058 347.383 187.017 356.645C182.939 375.147 176.325 392.782 162.165 407.257L164.057 409.527Z" fill="url(#paint0_linear_784_62564)"/>
<defs>
<linearGradient id="paint0_linear_784_62564" x1="232.161" y1="328.88" x2="112.339" y2="173.59" gradientUnits="userSpaceOnUse">
<stop stop-color="#FEBD81"/>
<stop offset="0.489583" stop-color="#FFE598"/>
<stop offset="1" stop-color="#BFF4A6"/>
</linearGradient>
</defs>
</svg>
