<svg width="251" height="455" viewBox="0 0 251 455" fill="none" xmlns="http://www.w3.org/2000/svg">
<path d="M4.59378 454.161C3.80529 454.419 3.02585 453.972 2.85289 453.163L0.0340802 439.981C-0.138924 439.172 0.360057 438.307 1.14858 438.049C1.93708 437.791 2.71651 438.238 2.88948 439.046L5.39509 450.764L16.8168 447.027C17.6053 446.769 18.3847 447.216 18.5577 448.025C18.7307 448.833 18.2317 449.698 17.4432 449.956L4.59378 454.161ZM3.04958 451.99C19.1952 424.004 44.2814 405.275 72.2021 390.483C100.056 375.725 131.082 364.726 158.947 352.472C186.952 340.156 211.847 326.55 228.16 306.518C244.374 286.607 252.281 260.118 245.84 221.596L248.721 220.796C255.28 260.024 247.269 287.556 230.304 308.389C213.438 329.101 187.893 342.963 159.855 355.293C131.677 367.685 101.056 378.508 73.3176 393.204C45.6456 407.865 21.1932 426.22 5.5116 453.401L3.04958 451.99ZM245.84 221.596C239.402 183.089 221.998 158.997 200.691 145.388C179.353 131.759 154 128.581 131.605 132.123C109.142 135.675 89.9618 145.928 80.7401 158.784C76.1654 165.162 74.0533 172.149 75.1109 179.362C76.1739 186.612 80.4719 194.302 89.1321 201.918L87.1382 204.351C78.1733 196.467 73.4132 188.236 72.2205 180.102C71.0222 171.929 73.4566 164.066 78.4659 157.082C88.412 143.216 108.549 132.702 131.436 129.083C154.389 125.452 180.417 128.696 202.372 142.719C224.358 156.762 242.16 181.553 248.721 220.796L245.84 221.596ZM89.1321 201.918C106.461 217.157 122.588 217.616 134.903 209.125C147.386 200.519 156.535 182.354 159.08 159.125C164.155 112.794 142.756 47.3407 70.9754 2.68472L72.6309 6.59896e-05C145.183 45.1361 167.2 111.578 161.983 159.195C159.382 182.941 149.958 202.263 136.342 211.65C122.558 221.153 105.06 220.111 87.1382 204.351L89.1321 201.918Z" fill="url(#paint0_linear_784_62368)"/>
<defs>
<linearGradient id="paint0_linear_784_62368" x1="-3.782" y1="240.069" x2="241.378" y2="191.174" gradientUnits="userSpaceOnUse">
<stop stop-color="#BFF0FF"/>
<stop offset="1" stop-color="#82B4FF"/>
</linearGradient>
</defs>
</svg>
