<svg width="90" height="90" viewBox="0 0 90 90" fill="none" xmlns="http://www.w3.org/2000/svg">
<path fill-rule="evenodd" clip-rule="evenodd" d="M60.201 2.5598C65.5608 1.09496 71.0933 4.25284 72.5581 9.61261L86.4121 60.3035C87.8771 65.6637 84.7197 71.1961 79.3599 72.661L28.6686 86.5151C23.3088 87.9799 17.7764 84.8225 16.3114 79.4623L2.45742 28.7714C0.992577 23.4116 4.1499 17.8788 9.50967 16.4139L60.201 2.5598Z" fill="white"/>
<path fill-rule="evenodd" clip-rule="evenodd" d="M60.2007 2.55997C65.5605 1.09512 71.093 4.253 72.5579 9.61277L86.4118 60.3037C87.8768 65.6639 84.7194 71.1963 79.3596 72.6611L28.6683 86.5152C23.3085 87.9801 17.7761 84.8226 16.3111 79.4624L2.45713 28.7715C0.992289 23.4118 4.14961 17.8789 9.50938 16.4141L60.2007 2.55997Z" fill="#0277FF"/>
<path fill-rule="evenodd" clip-rule="evenodd" d="M53.5194 34.8289C56.6511 34.182 58.4955 30.9504 57.4596 27.925C56.6054 25.4299 53.9822 23.933 51.3995 24.4664C48.2677 25.1132 46.4234 28.3449 47.4593 31.3703C48.3137 33.8653 50.9367 35.3625 53.5194 34.8289ZM31.5826 40.8573C34.7233 40.2087 36.5731 36.9677 35.5342 33.9338C34.6773 31.4316 32.0468 29.9304 29.4567 30.4653C26.3161 31.1141 24.4664 34.3547 25.5054 37.3887C26.362 39.8909 28.9928 41.3923 31.5826 40.8573ZM29.2242 53.6775C33.557 60.3657 41.6328 63.4476 49.3201 61.3467C57.0073 59.2457 62.393 52.4847 62.7218 44.5225L55.319 44.2169C55.1238 48.9411 51.9281 52.9529 47.3667 54.1995C42.8054 55.4461 38.0134 53.6174 35.4425 49.6492L29.2242 53.6775Z" fill="white"/>
</svg>
