<svg width="73" height="233" viewBox="0 0 73 233" fill="none" xmlns="http://www.w3.org/2000/svg">
<path d="M31.4117 0.0139394C32.2401 0.0147932 32.911 0.687052 32.9101 1.51548L32.8962 15.0155C32.8954 15.8439 32.2231 16.5148 31.3947 16.5139C30.5662 16.5131 29.8953 15.8408 29.8962 15.0124L29.9086 3.01239L17.9086 2.99999C17.0802 2.99913 16.4093 2.32686 16.4101 1.49844C16.411 0.670017 17.0833 -0.000865389 17.9117 -4.08271e-06L31.4117 0.0139394ZM71.5769 229.277C72.2832 229.71 72.5048 230.634 72.0718 231.34C71.6388 232.047 70.7153 232.268 70.009 231.835L71.5769 229.277ZM32.4697 2.57569C7.28707 27.7064 -1.62545 72.9035 5.22691 117.778C12.0732 162.612 34.5853 206.6 71.5769 229.277L70.009 231.835C32.0307 208.552 9.19308 163.625 2.26129 118.23C-4.66442 72.876 4.21665 26.5322 30.3506 0.452184L32.4697 2.57569Z" fill="url(#paint0_linear_1197_91)"/>
<defs>
<linearGradient id="paint0_linear_1197_91" x1="83.5753" y1="55.5579" x2="5.50513" y2="193.644" gradientUnits="userSpaceOnUse">
<stop stop-color="#BFF0FF"/>
<stop offset="1" stop-color="#82B4FF"/>
</linearGradient>
</defs>
</svg>
