<svg width="425" height="457" viewBox="0 0 425 457" fill="none" xmlns="http://www.w3.org/2000/svg">
<path d="M74.3197 452.187C74.3732 453.025 73.7637 453.814 72.9582 453.948L59.8322 456.141C59.0267 456.275 58.3304 455.705 58.2768 454.866C58.2233 454.028 58.8329 453.239 59.6384 453.105L71.3059 451.156L70.5306 439.012C70.4771 438.174 71.0867 437.385 71.8922 437.251C72.6976 437.116 73.394 437.687 73.4475 438.525L74.3197 452.187ZM128.25 111.334L126.81 111.216L128.25 111.334ZM71.8985 453.676C27.9306 417.652 7.16613 390.111 1.58997 365.916C-4.0334 341.517 5.84916 320.879 21.9222 299.135C54.1159 255.582 111.436 206.846 126.81 111.216L129.691 111.452C114.143 208.169 55.8808 257.973 24.1669 300.877C8.28616 322.361 -0.866571 341.932 4.43507 364.935C9.78391 388.143 29.9048 415.2 73.824 451.185L71.8985 453.676ZM126.81 111.216C134.221 65.1136 149.757 42.9217 171.114 34.1442C181.691 29.7975 193.523 28.8232 206.179 29.666C218.837 30.5088 232.433 33.1793 246.561 36.2134C274.902 42.2994 305.411 49.8405 335.625 47.5446C365.724 45.2575 395.484 33.203 422.326 8.92809e-05L424.478 1.86201C396.994 35.8605 366.385 48.2695 335.565 50.6114C304.861 52.9444 273.905 45.2799 245.726 39.2287C231.596 36.1942 218.169 33.5632 205.727 32.7347C193.284 31.9061 181.941 32.8904 171.953 36.9954C152.181 45.121 137.029 65.8041 129.691 111.452L126.81 111.216Z" fill="url(#paint0_linear_784_62497)"/>
<defs>
<linearGradient id="paint0_linear_784_62497" x1="289.75" y1="30.334" x2="9.03406" y2="438.082" gradientUnits="userSpaceOnUse">
<stop stop-color="#FFC787"/>
<stop offset="1" stop-color="#E0A6F4"/>
</linearGradient>
</defs>
</svg>
