<svg width="96" height="96" viewBox="0 0 96 96" fill="none" xmlns="http://www.w3.org/2000/svg">
<rect y="18.0046" width="80" height="80" rx="40" transform="rotate(-13.0063 0 18.0046)" fill="white"/>
<path fill-rule="evenodd" clip-rule="evenodd" d="M35.2256 81.6424C41.8842 84.1642 49.141 84.655 56.0785 83.0525C65.3759 80.8942 73.4374 75.136 78.4944 67.0412C83.5513 58.9463 85.1907 49.1761 83.0529 39.874C81.4504 32.9365 77.8268 26.63 72.6401 21.752C67.4535 16.874 60.9368 13.6435 53.9142 12.4691C46.8916 11.2947 39.6785 12.2292 33.1869 15.1542C26.6954 18.0793 21.217 22.8637 17.4446 28.9023C13.6721 34.941 11.7751 41.9626 11.9933 49.0794C12.2115 56.1962 14.5352 63.0884 18.6705 68.8846C22.8059 74.6808 28.5671 79.1205 35.2256 81.6424ZM24.4809 25.8784C28.8517 21.232 34.5022 17.9861 40.7177 16.5511C49.0511 14.637 57.8034 16.1064 65.0547 20.637C72.3061 25.1676 77.4643 32.3894 79.3979 40.7182C80.8336 46.9336 80.3938 53.4352 78.1344 59.4007C75.8749 65.3663 71.8971 70.5278 66.7041 74.2325C63.2732 76.6802 59.4136 78.4194 55.3506 79.3742C55.373 79.2564 55.3841 79.1361 55.3836 79.0148C55.3833 78.9473 55.3793 78.8801 55.3718 78.8136C56.0939 77.5477 56.8682 76.0236 57.5894 74.2717C60.3456 67.7087 61.1192 60.4941 59.8332 53.5157C63.8092 51.8365 65.6783 48.9007 66.558 46.54C66.7601 45.9964 66.9219 45.4536 67.0499 44.9185L73.4503 43.4401C73.6959 43.3831 73.9275 43.2771 74.1313 43.1285C74.335 42.9799 74.5067 42.7917 74.6361 42.5752C74.7654 42.3588 74.8498 42.1184 74.8841 41.8686C74.9185 41.6187 74.9021 41.3645 74.8359 41.1212C74.4254 39.7292 73.7489 38.4299 72.8438 37.2954C71.103 35.1564 68.7446 34.1407 66.1142 34.3578C65.2102 32.1637 63.666 29.5866 61.0479 27.5801C56.5324 24.1228 50.2371 23.2936 42.3309 25.1198L42.2853 25.1303C41.7273 25.274 28.6274 28.7211 24.0121 34.8453C23.8004 35.1268 23.6723 35.4623 23.6425 35.8133C23.6126 36.1643 23.6822 36.5165 23.8432 36.8298C24.0043 37.1431 24.2502 37.4047 24.553 37.5846C24.8558 37.7646 25.2032 37.8557 25.5553 37.8474C30.4644 37.7209 34.0991 38.1517 35.9677 38.6278C35.5206 39.0704 35.0892 39.5307 34.6746 40.0081C32.5339 42.5128 30.3315 46.2511 29.7888 51.3174C26.1924 54.45 19.9599 56.5786 17.1365 57.4287C15.676 52.6638 15.3342 47.6062 16.1627 42.6545C17.2154 36.3629 20.1101 30.5248 24.4809 25.8784ZM29.7707 55.9917C29.8797 57.1537 30.0741 58.3693 30.3675 59.6395C31.9879 66.6548 36.4397 72.5395 43.2535 76.6851C45.4323 78.0239 47.7461 79.123 50.1543 79.9652C50.1049 80.0321 50.0552 80.0987 50.0053 80.1652C49.6576 80.1872 49.3091 80.2035 48.96 80.2142C42.5839 80.4094 36.2932 78.7095 30.8832 75.3294C25.4733 71.9493 21.1872 67.0408 18.5669 61.2247C18.5279 61.1381 18.4893 61.0514 18.4511 60.9645C21.0497 60.1732 25.8744 58.5017 29.7707 55.9917ZM52.2654 76.7132C47.9981 75.3198 36.7488 70.5985 34.0225 58.7953C32.5454 52.4008 33.7246 46.9004 37.524 42.4425C40.3402 39.194 44.0801 36.8814 48.2446 35.8133C48.9346 35.6506 49.64 35.5619 50.3487 35.5489C49.618 36.1888 49.0793 37.019 48.7927 37.9469C48.506 38.8749 48.4826 39.8643 48.7252 40.8048C48.8523 41.48 49.1144 42.1226 49.4958 42.6941C49.8773 43.2656 50.3701 43.7543 50.9449 44.1307C51.5197 44.5072 52.1646 44.7637 52.8409 44.885C53.5172 45.0063 54.2111 44.9897 54.8808 44.8364C58.0903 44.0951 59.8553 41.5149 59.1723 38.5579C59.0766 38.1404 58.9556 37.7291 58.8102 37.3262C58.7846 37.2452 58.754 37.1659 58.7184 37.0888C57.0395 32.8433 52.7531 30.9219 47.4004 32.1583C44.4497 32.9107 41.6782 34.1901 39.2119 35.9186C39.1964 35.9076 39.1806 35.8968 39.1647 35.8862C37.3544 34.7673 33.5524 34.3191 30.3686 34.164C34.5772 31.4295 40.6062 29.442 43.1996 28.7691C58.1017 25.3343 62.2596 33.1934 63.4125 38.1848C63.615 39.0617 64.1785 42.1571 63.0413 45.2315C61.9814 48.0812 59.753 49.9186 56.4102 50.6908C50.1105 52.1459 46.4915 48.0751 46.0434 46.1354C45.9315 45.6507 45.6316 45.2304 45.2097 44.9668C44.7878 44.7033 44.2785 44.6181 43.7938 44.73C43.3092 44.842 42.8888 45.1419 42.6252 45.5638C42.3617 45.9857 42.2765 46.495 42.3885 46.9796C42.8811 49.1123 44.6371 51.3559 46.9727 52.83C48.8752 54.0324 51.978 55.2489 56.2131 54.5486C57.29 60.663 56.5891 66.9717 54.1749 72.7179C53.6308 74.094 52.9925 75.4288 52.2654 76.7132ZM67.218 38.0913C67.3396 38.7899 67.4663 39.7908 67.4783 40.9696L70.3892 40.2972C70.2328 40.0503 70.0609 39.8136 69.8745 39.5885C69.1085 38.6787 68.2439 38.1871 67.218 38.0913ZM51.7786 39.9786C51.6808 39.5582 51.7099 39.1182 51.8622 38.7143C52.0145 38.3105 52.2831 37.9608 52.6342 37.7097C52.9852 37.4586 53.4029 37.3172 53.8343 37.3036C54.2657 37.2899 54.6915 37.4045 55.0578 37.6329C55.424 37.8613 55.7143 38.1932 55.8919 38.5866C56.0695 38.98 56.1263 39.4173 56.0553 39.843C55.9843 40.2688 55.7886 40.6639 55.4929 40.9784C55.1973 41.2928 54.815 41.5126 54.3944 41.6097C53.8313 41.7398 53.2395 41.6411 52.7491 41.3353C52.2587 41.0294 51.9096 40.5415 51.7786 39.9786Z" fill="#B5ACF9"/>
</svg>
