<svg width="80" height="80" viewBox="0 0 80 80" fill="none" xmlns="http://www.w3.org/2000/svg">
<rect width="80" height="80" rx="40" fill="white"/>
<path d="M71.4847 50.842C70.0196 55.0172 67.7465 58.863 64.795 62.1597C61.8435 65.4563 58.2716 68.1393 54.2831 70.0553C50.2946 71.9714 45.9677 73.0829 41.5496 73.3266C37.1315 73.5702 32.7086 72.9411 28.5336 71.4753C24.3591 70.0105 20.5139 67.7378 17.2177 64.7868C13.9215 61.8359 11.2389 58.2647 9.32293 54.2769C7.40702 50.2892 6.29535 45.9631 6.05142 41.5457C5.80749 37.1284 6.43608 32.7062 7.90128 28.5318C10.8593 20.1014 17.0452 13.1913 25.0981 9.3218C33.151 5.45227 42.4112 4.94022 50.8416 7.89829C55.0171 9.36199 58.8635 11.634 62.1608 14.5844C65.4582 17.5349 68.142 21.106 70.059 25.0939C71.9759 29.0817 73.0885 33.4082 73.3331 37.8261C73.5778 42.244 72.9496 46.6668 71.4847 50.842Z" fill="#231F20"/>
<path fill-rule="evenodd" clip-rule="evenodd" d="M30.0108 23.7202L30.3476 24.3602C30.4189 24.4986 30.4625 24.6496 30.4759 24.8047C30.4966 24.9395 30.4852 25.0772 30.4428 25.2068C30.4112 25.2998 30.3611 25.3853 30.2953 25.4581C30.2295 25.531 30.1495 25.5896 30.0602 25.6304C29.9751 25.6749 29.8817 25.7013 29.7858 25.7079C29.69 25.7145 29.5938 25.7013 29.5034 25.6689C29.3795 25.6232 29.2673 25.5507 29.1749 25.4565C29.0647 25.3465 28.9718 25.2205 28.8994 25.0827L28.5344 24.3897C28.2326 24.4494 27.9235 24.4623 27.6178 24.4279C27.2765 24.3931 26.9409 24.3164 26.6184 24.1996C26.1335 24.0535 25.6861 23.8041 25.3068 23.4686C24.9276 23.133 24.6256 22.7192 24.4217 22.2557C24.0224 21.2655 24.0236 20.1588 24.425 19.1694C24.73 18.1451 25.4209 17.2792 26.352 16.7544C26.8011 16.5204 27.2954 16.386 27.8012 16.3604C28.307 16.3348 28.8123 16.4186 29.2828 16.6061C29.7666 16.7556 30.2129 17.007 30.5914 17.3434C30.9699 17.6798 31.272 18.0934 31.4772 18.5564C31.8771 19.5454 31.8763 20.6511 31.475 21.6395C31.3322 22.0541 31.1315 22.4465 30.8789 22.805C30.6348 23.1501 30.3425 23.4583 30.0108 23.7202ZM29.0575 22.1299C29.1948 21.9671 29.3166 21.7918 29.4211 21.6062C29.5302 21.429 29.6234 21.2425 29.6994 21.0489C29.9376 20.4724 29.9745 19.8325 29.8042 19.2324C29.7258 18.9824 29.5876 18.7553 29.4014 18.5708C29.2153 18.3864 28.987 18.2502 28.7362 18.174C28.4928 18.0774 28.2295 18.0414 27.969 18.0691C27.7085 18.0968 27.4587 18.1874 27.241 18.3331C26.7332 18.6952 26.3621 19.2178 26.1879 19.8167C25.9584 20.3801 25.9296 21.0053 26.1064 21.5874C26.1894 21.8346 26.3296 22.0587 26.5155 22.2415C26.7015 22.4243 26.928 22.5606 27.1766 22.6394C27.2659 22.6706 27.358 22.6933 27.4515 22.7071C27.5478 22.721 27.6453 22.7251 27.7424 22.7192C27.6439 22.5603 27.5699 22.3876 27.5227 22.2067C27.4965 22.0766 27.5053 21.9418 27.5482 21.8162C27.6056 21.6382 27.7301 21.4896 27.8951 21.4018C27.9735 21.359 28.0602 21.3338 28.1493 21.3278C28.2384 21.3218 28.3277 21.3351 28.4112 21.3669C28.5353 21.4143 28.6453 21.4925 28.7308 21.5942C28.8605 21.7593 28.9701 21.939 29.0575 22.1299ZM36.3943 27.5315C35.9515 27.5436 35.5112 27.4617 35.1024 27.2912C34.6763 27.1684 34.2811 26.9569 33.9425 26.6706C33.6038 26.3844 33.3295 26.0298 33.1375 25.6302C32.7994 24.8639 32.8133 23.9595 33.179 22.9171L34.2414 19.8894C34.327 19.5778 34.5038 19.299 34.7491 19.0887C34.8525 19.0169 34.9726 18.9726 35.0979 18.96C35.2232 18.9473 35.3496 18.9666 35.4654 19.0162C35.5868 19.0498 35.6976 19.1137 35.7875 19.2019C35.8774 19.2901 35.9434 19.3997 35.9794 19.5204C36.0395 19.8378 36.0033 20.166 35.8755 20.4627L34.8771 23.3079C34.6656 23.7983 34.6168 24.3436 34.7378 24.8639C34.8097 25.0703 34.9304 25.2564 35.0895 25.4062C35.2487 25.556 35.4417 25.6652 35.6521 25.7245C35.8527 25.8082 36.0705 25.8426 36.2872 25.8247C36.5039 25.8068 36.7131 25.7372 36.8973 25.6216C37.3191 25.293 37.6231 24.8366 37.7639 24.3208L38.7623 21.4756C38.8473 21.1634 39.0255 20.8845 39.2731 20.6761C39.3759 20.6041 39.4953 20.5596 39.6201 20.5467C39.7449 20.5338 39.8709 20.553 39.9862 20.6025C40.1079 20.6366 40.219 20.7008 40.3094 20.7891C40.3998 20.8774 40.4665 20.987 40.5034 21.1078C40.5635 21.4252 40.5274 21.7534 40.3995 22.0501L39.3371 25.0779C38.9692 26.1195 38.4139 26.8339 37.6711 27.221C37.2722 27.4135 36.8371 27.5194 36.3943 27.5315ZM42.1292 29.2925L44.0356 29.9614C44.3329 30.089 44.6601 30.1303 44.9798 30.0804C45.0953 30.0511 45.201 29.9919 45.2864 29.9088C45.3718 29.8257 45.4338 29.7216 45.4662 29.607C45.511 29.4979 45.5266 29.379 45.5115 29.262C45.4964 29.145 45.4511 29.034 45.38 28.9398C45.1607 28.7023 44.8791 28.5312 44.5673 28.4459L43.1864 27.9614L43.6574 26.6189L44.8077 27.0225C45.104 27.1481 45.4291 27.19 45.7476 27.1436C45.8629 27.115 45.9687 27.0566 46.0545 26.9743C46.1402 26.892 46.2028 26.7886 46.236 26.6745C46.2814 26.5646 46.2971 26.4448 46.2816 26.3269C46.2661 26.2091 46.22 26.0974 46.1478 26.003C45.93 25.7654 45.6499 25.5936 45.3394 25.507L44.1892 25.1034L44.6389 23.8218L45.9718 24.2895C46.2683 24.416 46.5942 24.4568 46.9128 24.4074C47.0275 24.3789 47.1329 24.3209 47.2184 24.2392C47.3038 24.1575 47.3665 24.0548 47.4001 23.9415C47.4475 23.8302 47.4643 23.7083 47.4489 23.5884C47.4334 23.4684 47.3861 23.3548 47.312 23.2592C47.0952 23.0223 46.8162 22.8508 46.5069 22.7644L44.6678 22.1191C44.3657 21.9772 44.021 21.9553 43.7033 22.0578C43.4164 22.2466 43.2133 22.5388 43.1364 22.8736L41.3826 27.8719C41.3148 28.0102 41.2753 28.1608 41.2665 28.3146C41.2576 28.4684 41.2795 28.6225 41.3309 28.7677C41.5274 29.0307 41.8099 29.2164 42.1292 29.2925ZM48.2452 31.4858C48.1305 31.4942 48.0154 31.4761 47.9089 31.4328C47.8048 31.3982 47.7088 31.3428 47.6267 31.2701C47.5446 31.1974 47.4781 31.1088 47.4312 31.0097C47.3391 30.779 47.3416 30.5213 47.4382 30.2924C47.4595 30.2184 47.4851 30.1457 47.5147 30.0745L47.5416 30.0238L47.5416 30.0237L47.5418 30.0234L47.5418 30.0234L47.542 30.023L47.542 30.023L47.542 30.0229L47.542 30.0229C47.5765 29.9579 47.6136 29.8876 47.6562 29.8147L50.2519 25.2271C50.3985 24.9209 50.6323 24.6649 50.9239 24.4913C51.0555 24.4367 51.1968 24.4088 51.3393 24.4094C51.4818 24.41 51.6228 24.439 51.754 24.4946C52.0265 24.5752 52.2599 24.7531 52.4098 24.9946C52.5503 25.2623 52.6019 25.5678 52.5572 25.8668L52.1455 30.5371L54.672 26.598C54.8207 26.3404 55.0472 26.1365 55.319 26.0154C55.5811 25.9209 55.8687 25.9258 56.1274 26.0292C56.2724 26.0688 56.4078 26.1376 56.5253 26.2314C56.6427 26.3253 56.7397 26.4421 56.8104 26.5747C56.9353 26.908 56.9547 27.2716 56.866 27.6162L55.9335 32.8378C55.9376 32.9184 55.9128 32.9889 55.8892 33.0562L55.8263 33.2356C55.7925 33.3547 55.735 33.4658 55.6573 33.5622C55.5796 33.6586 55.4832 33.7383 55.374 33.7966C55.2675 33.8466 55.1519 33.8741 55.0343 33.8775C54.9168 33.8808 54.7998 33.8598 54.6907 33.8159C54.5863 33.7842 54.4906 33.7291 54.4106 33.655C54.3307 33.5808 54.2686 33.4894 54.2292 33.3877C54.1453 33.1248 54.1416 32.8429 54.2183 32.5778L55.2078 28.1067C54.2057 29.6839 53.4846 30.7923 53.0443 31.4318C52.7849 31.8506 52.4807 32.2397 52.1368 32.5924C52.0413 32.6719 51.9227 32.7185 51.7986 32.7256C51.6448 32.7277 51.492 32.6997 51.3489 32.6434C51.1132 32.5816 50.9084 32.4355 50.7733 32.2327C50.668 31.9965 50.6348 31.7345 50.6777 31.4795L51.1686 26.6858L49.1397 30.6735C49.0144 30.9556 48.8182 31.2004 48.5701 31.3841C48.4711 31.4425 48.3599 31.4773 48.2452 31.4858ZM57.6177 34.8493C57.7912 34.9112 57.9821 34.9019 58.1486 34.8233C58.3541 34.7227 58.5308 34.5718 58.6624 34.3846L59.1632 33.7471L61.8161 34.678L61.7841 35.4152C61.7604 35.6588 61.7979 35.9045 61.8931 36.13C61.99 36.3114 62.154 36.4477 62.35 36.5098C62.5622 36.5937 62.799 36.5901 63.0085 36.4998C63.1085 36.4552 63.1978 36.3898 63.2706 36.308C63.3434 36.2262 63.3979 36.1298 63.4305 36.0253C63.4559 35.9481 63.473 35.8685 63.4814 35.7877C63.4914 35.6976 63.4995 35.5925 63.5025 35.4712L63.4915 29.6774C63.4984 29.3708 63.4187 29.0684 63.2615 28.805C63.1132 28.5679 62.8864 28.3903 62.6207 28.3031C62.3513 28.1994 62.0531 28.1986 61.7831 28.3007C61.4715 28.4374 61.2003 28.6521 60.9958 28.9241L57.3494 33.3374C57.2979 33.3984 57.253 33.4647 57.2153 33.535C57.1696 33.6139 57.1319 33.6971 57.1029 33.7835C57.0631 33.8864 57.0447 33.9963 57.0487 34.1066C57.0527 34.2169 57.079 34.3252 57.1261 34.4249C57.1735 34.5263 57.2418 34.6165 57.3266 34.6897C57.4113 34.7628 57.5105 34.8172 57.6177 34.8493ZM61.9735 30.0552L61.8692 33.0089L60.1518 32.4063L61.9735 30.0552ZM51.8212 42.1398C51.8102 42.2201 51.7921 42.2992 51.767 42.3763C51.7323 42.4808 51.676 42.5768 51.6016 42.658C51.5272 42.7391 51.4365 42.8037 51.3354 42.8474C51.127 42.9371 50.8915 42.9412 50.6801 42.8585C50.5827 42.8278 50.4924 42.7781 50.4142 42.7124C50.336 42.6467 50.2715 42.5662 50.2244 42.4755C50.127 42.2507 50.0894 42.0044 50.1154 41.7607L50.1462 41.0267L47.4933 40.0958L46.9925 40.7334C46.8598 40.9195 46.6833 41.0701 46.4787 41.172C46.3109 41.2504 46.119 41.2593 45.9446 41.1969C45.8403 41.1636 45.7439 41.1091 45.6615 41.0368C45.5791 40.9646 45.5125 40.8762 45.4658 40.777C45.4191 40.6771 45.393 40.5689 45.389 40.4587C45.385 40.3485 45.4032 40.2386 45.4426 40.1356C45.4721 40.0495 45.5087 39.9661 45.5518 39.886C45.5902 39.8156 45.6362 39.7497 45.6891 39.6895L49.3356 35.2762C49.5404 35.0033 49.8119 34.7875 50.124 34.6496C50.3943 34.5503 50.6915 34.5523 50.9604 34.6552C51.226 34.7416 51.453 34.918 51.6023 35.1539C51.7593 35.418 51.8376 35.7213 51.828 36.0284L51.8402 41.819C51.8372 41.9403 51.8323 42.0465 51.8212 42.1398ZM50.3048 36.4007L48.4831 38.7518L50.1972 39.3533L50.3048 36.4007ZM60.501 41.1011C60.747 40.8907 60.9285 40.6151 61.0247 40.306C61.1244 40.0602 61.1651 39.7944 61.1435 39.53C61.1219 39.2656 61.0386 39.0099 60.9004 38.7835C60.537 38.2756 60.012 37.9062 59.4113 37.7356L58.0656 37.2634C57.764 37.1195 57.4185 37.0975 57.1011 37.2021C56.8132 37.39 56.609 37.6819 56.531 38.0168L54.7772 43.015C54.71 43.1538 54.671 43.3046 54.6627 43.4587C54.6544 43.6127 54.6768 43.7668 54.7287 43.912C54.9264 44.1719 55.2076 44.3557 55.5249 44.4325L57.1269 44.9946C57.7891 45.2726 58.529 45.3036 59.2121 45.0821C59.5061 44.9653 59.7697 44.7831 59.9827 44.5492C60.1957 44.3153 60.3526 44.0359 60.4414 43.7322C60.6048 43.3139 60.6181 42.8519 60.4792 42.4248C60.3163 41.9988 60.0153 41.6398 59.6243 41.4052C59.9411 41.3976 60.2476 41.2913 60.501 41.1011ZM58.0895 38.8155L58.756 39.0494C58.9778 39.1137 59.1682 39.2573 59.2909 39.453C59.3432 39.5428 59.3741 39.6433 59.3814 39.747C59.3888 39.8506 59.3722 39.9545 59.333 40.0507C59.3022 40.146 59.2506 40.2332 59.1821 40.3062C59.1135 40.3792 59.0297 40.4362 58.9366 40.473C58.7244 40.5493 58.4916 40.5445 58.2828 40.4595L57.5971 40.2189L58.0895 38.8155ZM58.2717 43.5575C57.9706 43.6251 57.6559 43.5965 57.372 43.4757L56.555 43.189L57.1171 41.587L57.9053 41.8636C58.2135 41.9466 58.4897 42.12 58.6986 42.3614C58.7674 42.4644 58.8095 42.583 58.8209 42.7064C58.8322 42.8298 58.8126 42.9541 58.7637 43.068C58.7305 43.1892 58.6672 43.3 58.5796 43.3901C58.492 43.4802 58.3829 43.5466 58.2627 43.5831L58.2717 43.5575ZM39.4134 48.2415C39.4285 48.3585 39.4129 48.4774 39.368 48.5865C39.3352 48.7014 39.2726 48.8055 39.1867 48.8884C39.1007 48.9713 38.9944 49.0301 38.8785 49.0589C38.5589 49.1079 38.2319 49.0655 37.9354 48.9367L36.029 48.2677C35.7107 48.1931 35.4289 48.0089 35.2328 47.7473C35.1807 47.6021 35.1582 47.4479 35.1665 47.2939C35.1748 47.1398 35.2138 46.989 35.2813 46.8503L37.0351 41.852C37.112 41.5173 37.3151 41.225 37.602 41.0362C37.9195 40.9327 38.2646 40.9546 38.5665 41.0975L40.4056 41.7428C40.7149 41.8292 40.9939 42.0007 41.2107 42.2376C41.2848 42.3332 41.332 42.4468 41.3475 42.5668C41.363 42.6867 41.3462 42.8086 41.2988 42.9199C41.2652 43.0332 41.2025 43.1359 41.117 43.2176C41.0315 43.2993 40.9262 43.3573 40.8114 43.3858C40.4929 43.4352 40.1669 43.3944 39.8704 43.2679L38.5408 42.8014L38.0911 44.083L39.2413 44.4866C39.5518 44.5731 39.8319 44.7449 40.0497 44.9825C40.1219 45.0769 40.168 45.1886 40.1835 45.3065C40.199 45.4243 40.1833 45.5441 40.1379 45.654C40.1047 45.7681 40.0421 45.8715 39.9563 45.9538C39.8706 46.0361 39.7648 46.0945 39.6495 46.1231C39.331 46.1695 39.0059 46.1277 38.7096 46.0021L37.5593 45.5985L37.0883 46.941L38.4692 47.4255C38.7812 47.5102 39.063 47.6814 39.2819 47.9194C39.353 48.0135 39.3983 48.1245 39.4134 48.2415ZM42.8029 49.2661C42.702 49.3762 42.6246 49.5058 42.5757 49.647C42.526 49.762 42.5059 49.8877 42.5175 50.0125C42.529 50.1373 42.5718 50.2572 42.6418 50.3611C42.8506 50.6064 43.1285 50.7829 43.4393 50.8676L46.7202 52.0188C47.0159 52.1465 47.3416 52.1884 47.6601 52.1399C47.776 52.1112 47.8823 52.0524 47.9683 51.9694C48.0542 51.8865 48.1168 51.7824 48.1497 51.6676C48.1942 51.558 48.2094 51.4387 48.1938 51.3215C48.1781 51.2043 48.1321 51.0932 48.0603 50.9993C47.842 50.7624 47.5615 50.5916 47.2508 50.5065L44.9407 49.696L49.1481 46.8325L49.1948 46.8021C49.5304 46.6178 49.8039 46.338 49.9806 45.9983C50.0311 45.8776 50.0456 45.7449 50.0225 45.6161C49.9994 45.4873 49.9396 45.368 49.8502 45.2724C49.5692 45.0055 49.2272 44.8114 48.854 44.7069L46.0793 43.7334C45.7843 43.6072 45.4599 43.5657 45.1426 43.6134C45.0287 43.6397 44.9238 43.6958 44.8388 43.776C44.7537 43.8562 44.6916 43.9576 44.6586 44.0697C44.6123 44.1772 44.5958 44.2952 44.6108 44.4112C44.6258 44.5273 44.6717 44.6372 44.7438 44.7294C44.9666 44.9623 45.2482 45.1307 45.5588 45.2168L47.6702 45.9577L43.3792 48.8134C43.1708 48.9423 42.9775 49.0942 42.8029 49.2661ZM56.9341 54.2827C56.9329 54.3896 56.9255 54.4964 56.9119 54.6024C56.9029 54.6877 56.8843 54.7717 56.8564 54.8528C56.8212 54.9548 56.7651 55.0483 56.6915 55.1273C56.6179 55.2062 56.5286 55.2689 56.4293 55.3111C56.3256 55.356 56.2141 55.38 56.1011 55.3817C55.9881 55.3835 55.8759 55.3629 55.7708 55.3211C55.674 55.291 55.5841 55.242 55.5063 55.177C55.4284 55.112 55.3642 55.0323 55.3172 54.9425C55.22 54.7175 55.1825 54.4714 55.2081 54.2277L55.2401 53.4904L52.5872 52.5596L52.0864 53.1971C51.9536 53.3831 51.7772 53.5337 51.5726 53.6358C51.4061 53.7143 51.2152 53.7237 51.0417 53.6618C50.9366 53.6289 50.8394 53.5744 50.7565 53.502C50.6735 53.4295 50.6065 53.3405 50.5597 53.2408C50.5137 53.1408 50.4882 53.0326 50.4848 52.9226C50.4813 52.8126 50.5 52.7031 50.5397 52.6004C50.5693 52.5144 50.6058 52.4309 50.6489 52.3509C50.6863 52.2799 50.7324 52.2139 50.7862 52.1543L54.4295 47.7399C54.6338 47.4676 54.904 47.2516 55.2147 47.1122C55.4862 47.0131 55.7844 47.0155 56.0543 47.119C56.3195 47.2072 56.5459 47.3845 56.6951 47.6209C56.8512 47.8842 56.9298 48.1862 56.9219 48.4921L56.9341 54.2827ZM55.3944 48.8666L53.5726 51.2177L55.29 51.8202L55.3944 48.8666ZM25.5998 28.9985L25.292 28.7682C24.722 28.3415 24.487 27.9856 24.5905 27.6908C24.6182 27.6035 24.6667 27.5243 24.7319 27.4601C24.7971 27.3958 24.877 27.3484 24.9646 27.3219C25.1755 27.2607 25.4008 27.2726 25.6041 27.3555C25.8228 27.4473 26.0288 27.5668 26.2171 27.711C26.4004 27.8527 26.6005 27.9713 26.8129 28.064C27.0059 28.1439 27.2226 28.145 27.4164 28.067C27.5066 28.0235 27.5867 27.9615 27.6514 27.885C27.716 27.8085 27.7638 27.7192 27.7917 27.6229C27.8384 27.4538 27.8364 27.275 27.7858 27.1069C27.7353 26.9389 27.6382 26.7887 27.5059 26.6734C27.1462 26.3029 26.6994 26.0286 26.2062 25.8755C25.5305 25.6053 24.7781 25.5981 24.0974 25.8553C23.7921 25.9751 23.5173 26.1615 23.2932 26.401C23.0691 26.6405 22.9013 26.927 22.802 27.2396C22.7108 27.4616 22.665 27.6996 22.6673 27.9396C22.6696 28.1796 22.72 28.4167 22.8155 28.6369C23.1331 29.1855 23.5795 29.6485 24.1163 29.9858C24.4491 30.1985 24.7403 30.4702 24.9757 30.7875C25.0297 30.8821 25.0618 30.9876 25.0698 31.0962C25.0778 31.2049 25.0613 31.3139 25.0216 31.4154C24.9887 31.5156 24.9345 31.6076 24.8627 31.6849C24.7908 31.7622 24.7031 31.823 24.6054 31.8631C24.3965 31.9494 24.1623 31.9523 23.9513 31.8711C23.6218 31.7412 23.3131 31.5638 23.035 31.3444C22.8205 31.1677 22.5861 31.0166 22.3365 30.8942C22.1252 30.8079 21.8888 30.8061 21.6761 30.8892C21.5794 30.9317 21.493 30.9948 21.4229 31.074C21.3529 31.1531 21.3009 31.2466 21.2705 31.3478C21.1581 31.6682 21.2924 32.0033 21.6665 32.3936C22.0935 32.8176 22.6153 33.1339 23.1887 33.3163C23.9094 33.6069 24.712 33.6207 25.4422 33.355C25.7676 33.2272 26.0604 33.0281 26.2989 32.7725C26.5374 32.5168 26.7157 32.211 26.8206 31.8775C27.0048 31.4015 26.9996 30.873 26.8063 30.4006C26.5294 29.8386 26.1142 29.3561 25.5998 28.9985ZM33.148 36.7264C32.7059 36.7387 32.2661 36.6574 31.8576 36.4878C31.431 36.365 31.0351 36.1535 30.6959 35.867C30.3568 35.5806 30.0819 35.2257 29.8895 34.8256C29.5493 34.0586 29.5621 33.1538 29.9278 32.1115L30.9891 29.0869C31.0757 28.7741 31.254 28.4945 31.5011 28.2841C31.6043 28.2118 31.7244 28.1671 31.8498 28.1544C31.9752 28.1417 32.1018 28.1614 32.2174 28.2116C32.3388 28.2453 32.4496 28.3092 32.5395 28.3974C32.6294 28.4856 32.6954 28.5951 32.7314 28.7158C32.7914 29.0344 32.7548 29.3637 32.6264 29.6614L31.6292 32.5033C31.4175 32.9948 31.3683 33.5411 31.4887 34.0625C31.5606 34.269 31.6813 34.455 31.8404 34.6048C31.9996 34.7546 32.1926 34.8638 32.403 34.9231C32.6036 35.0069 32.8215 35.0413 33.0381 35.0234C33.2548 35.0055 33.464 34.9358 33.6482 34.8203C34.0703 34.4903 34.3746 34.033 34.516 33.5162L35.5132 30.6743C35.5982 30.3608 35.7768 30.0808 36.0251 29.8715C36.1279 29.7996 36.2473 29.755 36.3721 29.7421C36.4969 29.7292 36.623 29.7484 36.7383 29.7979C36.8602 29.8315 36.9716 29.8954 37.0621 29.9838C37.1525 30.0722 37.2191 30.1821 37.2555 30.3032C37.3155 30.6218 37.2789 30.9511 37.1504 31.2488L36.0891 34.2733C35.7213 35.315 35.1659 36.0293 34.4232 36.4164C34.0247 36.6085 33.5902 36.7141 33.148 36.7264ZM42.2157 39.4848C42.7218 39.3961 43.0398 39.1874 43.1544 38.8606C43.1868 38.7713 43.2012 38.6766 43.1968 38.5818C43.1924 38.487 43.1692 38.394 43.1288 38.3082C43.0971 38.2244 43.0479 38.1483 42.9845 38.0851C42.921 38.0218 42.8447 37.9729 42.7608 37.9416C42.5294 37.8944 42.2926 37.8791 42.0571 37.8961C41.7471 37.9128 41.4367 37.8734 41.1407 37.7797C40.895 37.7034 40.6699 37.5722 40.4823 37.396C40.2948 37.2199 40.1497 37.0034 40.0581 36.7629C39.8766 36.2039 39.9002 35.5986 40.1247 35.0554C40.2927 34.4796 40.6526 33.9787 41.1446 33.6357C41.3581 33.4976 41.6014 33.4121 41.8544 33.3864C42.1074 33.3607 42.3629 33.3954 42.5999 33.4878C42.8626 33.5897 43.1096 33.7285 43.3333 33.8999C43.5101 34.0402 43.7024 34.1596 43.9066 34.2557C43.9968 34.2863 44.0925 34.2974 44.1874 34.2886C44.2822 34.2797 44.3742 34.251 44.4572 34.2042C44.5456 34.1606 44.6245 34.0999 44.6894 34.0258C44.7543 33.9516 44.804 33.8654 44.8356 33.772C44.939 33.4773 44.8282 33.1469 44.5032 32.781C44.1288 32.3833 43.6587 32.0883 43.1378 31.9241C42.6823 31.75 42.195 31.6751 41.7083 31.7041C41.2216 31.7331 40.7467 31.8654 40.3151 32.0923C39.4042 32.5869 38.7242 33.4197 38.4219 34.4112C38.0304 35.3745 38.0304 36.4526 38.422 37.4159C38.6184 37.8638 38.9092 38.264 39.2746 38.5891C39.64 38.9142 40.0714 39.1565 40.5391 39.2995C41.0725 39.5053 41.6502 39.5691 42.2157 39.4848ZM29.5958 38.511C30.0529 38.4861 30.5104 38.5515 30.9423 38.7035C31.8141 39.0094 32.5287 39.6491 32.9289 40.4819C33.3291 41.3147 33.382 42.2724 33.0761 43.1442C32.7701 44.0164 32.1303 44.7314 31.2975 45.1321C30.4646 45.5328 29.5067 45.5865 28.6342 45.2813C27.7615 44.9751 27.0462 44.3347 26.6456 43.5011C26.2451 42.6675 26.1921 41.7089 26.4983 40.8362C26.6499 40.4042 26.8851 40.0064 27.1905 39.6654C27.4959 39.3244 27.8655 39.0469 28.2783 38.8488C28.691 38.6508 29.1387 38.536 29.5958 38.511ZM44.7426 60.0554C44.887 60.1058 45.04 60.1263 45.1926 60.1158C45.3451 60.1054 45.4939 60.064 45.63 59.9944C45.7661 59.9248 45.8867 59.8283 45.9844 59.7107C46.0822 59.5932 46.1551 59.457 46.1987 59.3105C46.2551 59.1674 46.2824 59.0144 46.2787 58.8607C46.2751 58.7069 46.2407 58.5554 46.1775 58.4152C46.1143 58.275 46.0237 58.1488 45.911 58.0442C45.7982 57.9395 45.6656 57.8586 45.5211 57.806C45.3771 57.7563 45.2246 57.7362 45.0727 57.7469C44.9207 57.7576 44.7725 57.7989 44.637 57.8682C44.5014 57.9376 44.3812 58.0337 44.2837 58.1506C44.1861 58.2676 44.1132 58.4031 44.0693 58.5489C44.0129 58.6919 43.9856 58.8447 43.989 58.9983C43.9924 59.152 44.0265 59.3034 44.0892 59.4437C44.1519 59.5841 44.242 59.7104 44.3542 59.8155C44.4664 59.9205 44.5985 60.0021 44.7426 60.0554ZM52.7785 65.6562L34.394 59.2054L36.9291 51.9804L55.3136 58.4312L52.7785 65.6562ZM49.9544 58.26L48.7305 57.8306L47.2622 62.015L48.3965 62.413L49.2351 60.0228L49.7289 62.0204L49.7545 62.0294L51.3959 60.7666L50.5527 63.1696L51.7062 63.5743L53.1744 59.3899L51.9505 58.9604L50.3852 60.232L49.9544 58.26ZM43.3429 57.3401C43.1348 57.5674 42.974 57.8339 42.87 58.124L42.8539 58.1184C42.7531 58.4093 42.7117 58.7174 42.7321 59.0246C42.7525 59.3318 42.8343 59.6318 42.9727 59.9068C43.111 60.1818 43.3031 60.4263 43.5376 60.6257C43.7721 60.8252 44.0442 60.9756 44.3379 61.068C44.6268 61.1795 44.9351 61.2321 45.2446 61.2226C45.5541 61.2132 45.8587 61.1419 46.1402 61.0131C46.4218 60.8842 46.6748 60.7004 46.8843 60.4723C47.0938 60.2442 47.2555 59.9766 47.3601 59.6851C47.4609 59.3942 47.5023 59.0861 47.4819 58.7789C47.4615 58.4717 47.3797 58.1717 47.2414 57.8967C47.103 57.6217 46.9109 57.3772 46.6764 57.1778C46.4419 56.9783 46.1698 56.8279 45.8761 56.7354C45.5878 56.6266 45.2806 56.5763 44.9726 56.5873C44.6646 56.5984 44.3619 56.6707 44.0821 56.7999C43.8023 56.9292 43.5511 57.1128 43.3429 57.3401ZM39.0881 55.8521C38.8826 56.0791 38.725 56.3452 38.6247 56.6344L38.6468 56.6638C38.5415 56.9471 38.4944 57.2487 38.5082 57.5507C38.522 57.8526 38.5965 58.1487 38.7272 58.4213C38.8579 58.6938 39.0422 58.9372 39.269 59.137C39.4958 59.3368 39.7605 59.4889 40.0474 59.5842C40.4059 59.7279 40.7954 59.7762 41.1781 59.7244C41.5608 59.6726 41.9236 59.5225 42.231 59.2888L41.5776 58.3614C41.4169 58.4828 41.2285 58.5621 41.0294 58.5922C40.8304 58.6222 40.6269 58.6021 40.4376 58.5336C40.2989 58.4801 40.1725 58.3989 40.0662 58.2951C39.9598 58.1912 39.8757 58.0668 39.8189 57.9294C39.7621 57.792 39.7338 57.6445 39.7358 57.4959C39.7377 57.3472 39.7699 57.2005 39.8303 57.0647C39.8695 56.9225 39.9369 56.7897 40.0285 56.6742C40.1202 56.5587 40.2342 56.4629 40.3637 56.3924C40.4932 56.322 40.6356 56.2784 40.7824 56.2642C40.9291 56.2501 41.0772 56.2656 41.2178 56.31C41.3979 56.3757 41.5595 56.4838 41.6891 56.6251C41.8186 56.7663 41.9123 56.9367 41.9622 57.1218L43.0709 56.7515C42.9718 56.3988 42.7851 56.0768 42.5283 55.8156C42.2714 55.5543 41.9526 55.3622 41.6016 55.2572C41.3162 55.1464 41.0114 55.0943 40.7054 55.1039C40.3994 55.1136 40.0984 55.1848 39.8206 55.3134C39.5427 55.4419 39.2936 55.6252 39.0881 55.8521ZM37.9954 57.4536L36.8131 57.0387L36.4263 58.2129L37.5862 58.6198L37.9954 57.4536Z" fill="white"/>
</svg>
