<svg width="253" height="438" viewBox="0 0 253 438" fill="none" xmlns="http://www.w3.org/2000/svg">
<path d="M57.4112 436.019C57.3028 436.867 56.5664 437.526 55.7665 437.491L42.7307 436.911C41.9307 436.876 41.3701 436.159 41.4785 435.311C41.5869 434.463 42.3232 433.804 43.1232 433.839L54.7106 434.354L56.2806 422.066C56.389 421.218 57.1253 420.559 57.9253 420.594C58.7252 420.63 59.2858 421.346 59.1775 422.195L57.4112 436.019ZM54.7998 436.995C17.0957 388.805 1.66164 353.742 0.12853 327.721C-0.641024 314.659 2.09122 303.857 7.2765 294.859C12.4507 285.882 20.002 278.814 28.7161 273.102C46.0886 261.714 68.4019 255.525 86.5728 250.37C95.7204 247.775 103.775 245.455 109.771 242.88C112.768 241.593 115.158 240.279 116.882 238.897C118.603 237.519 119.537 236.174 119.868 234.826L122.695 235.33C122.119 237.677 120.574 239.628 118.513 241.28C116.456 242.927 113.766 244.376 110.655 245.712C104.437 248.383 96.1715 250.757 87.0847 253.335C68.7872 258.526 46.9745 264.603 30.0908 275.67C21.6767 281.185 14.5674 287.892 9.73928 296.269C4.92227 304.627 2.31059 314.76 3.04637 327.249C4.5239 352.327 19.4977 386.821 57.1257 434.914L54.7998 436.995ZM119.868 234.826C120.574 231.949 119.37 228.948 116.035 225.728C112.73 222.536 107.625 219.434 101.378 216.405C88.8928 210.351 72.3111 204.805 57.5836 199.437C50.2461 196.762 43.3705 194.131 37.7566 191.515C32.1934 188.923 27.6791 186.263 25.2315 183.462C23.9986 182.05 23.1496 180.446 23.1344 178.645C23.1185 176.779 23.9956 175.052 25.5109 173.513C27.0002 172 29.1873 170.575 32.0579 169.195C34.9453 167.807 38.6139 166.423 43.1405 165.032L43.7151 167.977C39.2748 169.342 35.7623 170.675 33.0625 171.972C30.3459 173.278 28.5399 174.508 27.4384 175.627C26.3628 176.719 26.0514 177.602 26.0576 178.332C26.0643 179.127 26.4479 180.105 27.4664 181.27C29.5215 183.622 33.5854 186.095 39.1416 188.684C44.6472 191.25 51.4326 193.848 58.7634 196.521C73.3729 201.846 90.1582 207.462 102.799 213.591C109.116 216.653 114.514 219.897 118.117 223.376C121.691 226.827 123.802 230.82 122.695 235.33L119.868 234.826ZM43.1405 165.032C79.0985 153.979 153.473 132.915 202.515 104.579C214.76 97.5044 225.355 90.0144 233.356 82.1655C241.362 74.3105 246.669 66.1963 248.536 57.8686C252.232 41.3842 242.607 22.8325 209.88 2.69114L211.525 2.11342e-06C244.344 20.1981 255.549 39.7048 251.379 58.3061C249.313 67.5212 243.513 76.2066 235.241 84.3217C226.963 92.4428 216.109 100.093 203.734 107.243C154.3 135.805 79.4925 156.98 43.7151 167.977L43.1405 165.032Z" fill="url(#paint0_linear_784_72818)"/>
<defs>
<linearGradient id="paint0_linear_784_72818" x1="22.2984" y1="253.296" x2="281.397" y2="201.62" gradientUnits="userSpaceOnUse">
<stop stop-color="#AB83FE"/>
<stop offset="1" stop-color="#FBAE96"/>
</linearGradient>
</defs>
</svg>
