<svg width="324" height="601" viewBox="0 0 324 601" fill="none" xmlns="http://www.w3.org/2000/svg">
<path d="M263.593 600.299C262.831 600.654 261.997 600.317 261.728 599.546L257.352 586.98C257.084 586.209 257.483 585.296 258.244 584.94C259.006 584.585 259.841 584.922 260.109 585.693L263.999 596.863L275.026 591.714C275.787 591.359 276.622 591.696 276.891 592.467C277.159 593.238 276.76 594.152 275.999 594.507L263.593 600.299ZM203.608 251.735L202.167 251.618L203.608 251.735ZM261.788 598.37C305.032 499.508 320.87 440.679 320.984 404.992C321.041 387.202 317.189 375.275 310.973 366.989C304.749 358.691 296.04 353.891 286.084 350.608C276.088 347.311 265.027 345.597 254.053 343.337C243.152 341.091 232.397 338.315 223.373 332.86C214.303 327.378 207.003 319.204 202.988 306.252C198.987 293.346 198.279 275.799 202.167 251.618L205.048 251.853C201.205 275.758 201.965 292.766 205.776 305.06C209.572 317.307 216.427 324.976 225.001 330.159C233.622 335.369 243.999 338.078 254.867 340.317C265.661 342.54 277.002 344.306 287.188 347.665C297.415 351.038 306.668 356.067 313.332 364.95C320.004 373.845 323.966 386.448 323.907 404.717C323.791 441.148 307.681 500.546 264.425 599.435L261.788 598.37ZM202.167 251.618C209.467 206.205 198.124 176.273 177.79 154.746C157.367 133.126 127.807 119.904 98.481 108.2C69.294 96.5527 40.2138 86.3762 21.3745 70.7978C11.9119 62.973 4.93175 53.7135 1.8095 42.1167C-1.315 30.5115 -0.530255 16.736 5.23879 -2.99858e-05L7.97729 0.804452C2.37098 17.0684 1.70231 30.1628 4.62835 41.0309C7.55667 51.9073 14.1311 60.7246 23.3089 68.3139C41.7506 83.5635 70.2954 93.5641 99.7334 105.312C129.032 117.005 159.097 130.397 179.956 152.48C200.904 174.656 212.498 205.516 205.048 251.853L202.167 251.618Z" fill="url(#paint0_linear_753_26990)"/>
<defs>
<linearGradient id="paint0_linear_753_26990" x1="87.11" y1="314.55" x2="298.094" y2="272.471" gradientUnits="userSpaceOnUse">
<stop stop-color="#DBA6F4"/>
<stop offset="1" stop-color="#A981FE"/>
</linearGradient>
</defs>
</svg>
