<svg width="61" height="281" viewBox="0 0 61 281" fill="none" xmlns="http://www.w3.org/2000/svg">
<path d="M46.6694 0.00316013C47.4963 -0.0473851 48.2076 0.581966 48.2581 1.40886L49.0817 14.8837C49.1322 15.7106 48.5028 16.4219 47.676 16.4724C46.8491 16.523 46.1378 15.8936 46.0872 15.0667L45.3552 3.08907L33.3776 3.82111C32.5507 3.87164 31.8394 3.24229 31.7888 2.41541C31.7383 1.58852 32.3677 0.877227 33.1945 0.826695L46.6694 0.00316013ZM59.5469 277.727C60.2484 278.168 60.4599 279.093 60.0192 279.795C59.5785 280.496 58.6526 280.708 57.9511 280.267L59.5469 277.727ZM47.8843 2.49434C17.2435 37.1243 1.66706 94.3792 3.08894 148.914C4.51211 203.498 22.9339 254.727 59.5469 277.727L57.9511 280.267C20.0678 256.469 1.52299 203.954 0.0899583 148.992C-1.34437 93.9806 14.3333 35.8861 45.6375 0.506385L47.8843 2.49434Z" fill="url(#paint0_linear_1694_16425)"/>
<defs>
<linearGradient id="paint0_linear_1694_16425" x1="95.6734" y1="61.2975" x2="-6.53881" y2="242.085" gradientUnits="userSpaceOnUse">
<stop stop-color="#DBA6F4"/>
<stop offset="1" stop-color="#A981FE"/>
</linearGradient>
</defs>
</svg>
